<?xml version="1.0" encoding="UTF-8"?>
<svg version="1.1" xmlns="http://www.w3.org/2000/svg" width="237" height="239">
<path d="M0 0 C4.50387717 1.77487643 8.86895966 2.34586561 13.6484375 2.9375 C19.93277924 3.8730902 23.13693096 6.94873528 27.4296875 11.3515625 C28.2753125 11.7846875 29.1209375 12.2178125 29.9921875 12.6640625 C33.55988503 15.13400695 34.74033596 18.45114792 36.4296875 22.3515625 C36.7596875 23.0115625 37.0896875 23.6715625 37.4296875 24.3515625 C36.4396875 24.8465625 36.4396875 24.8465625 35.4296875 25.3515625 C36.13738281 26.70121094 36.13738281 26.70121094 36.859375 28.078125 C39.14238787 33.41409749 39.21017573 38.99820998 39.5546875 44.7265625 C39.70189661 46.90112517 39.85031349 49.07560646 40 51.25 C40.10308472 52.81971558 40.10308472 52.81971558 40.20825195 54.42114258 C40.39901711 56.94567861 40.66369154 59.43820718 40.98046875 61.94921875 C41.5877614 67.10299965 41.53907469 72.23122493 41.4921875 77.4140625 C41.48767578 78.37505859 41.48316406 79.33605469 41.47851562 80.32617188 C41.46686456 82.66803672 41.45050775 85.00976431 41.4296875 87.3515625 C42.60917969 87.28775391 42.60917969 87.28775391 43.8125 87.22265625 C46.4296875 87.3515625 46.4296875 87.3515625 48.3046875 89.4140625 C49.74210816 93.16732756 49.08718743 95.40656291 48.4296875 99.3515625 C48.66291985 101.3840158 48.8995663 103.41618544 49.16015625 105.4453125 C50.23772504 117.06431512 51.52708389 132.25561592 43.9921875 141.9765625 C39.61646279 146.03211224 37.34648664 146.43206317 31.4296875 146.3515625 C31.40390625 147.1971875 31.378125 148.0428125 31.3515625 148.9140625 C30.76726097 160.6000931 27.32351312 166.33580728 20.44140625 175.55859375 C18.59885826 178.11669436 16.95917181 180.69531181 15.3671875 183.4140625 C7.57272016 196.67095978 -0.86456735 207.9615376 -15.921875 213.1640625 C-27.23584726 216.04252894 -38.47722199 214.48843593 -48.59765625 208.5859375 C-59.21493484 201.18734007 -65.33251023 192.12086666 -71.4453125 180.9140625 C-73.22844868 177.72989075 -75.37876605 174.89188536 -77.5703125 171.9765625 C-83.73550555 163.54965059 -86.17924276 156.81267796 -86.5703125 146.3515625 C-87.4571875 146.4134375 -88.3440625 146.4753125 -89.2578125 146.5390625 C-94.17213825 146.26089312 -96.41093895 144.61323372 -99.6953125 141.0390625 C-102.92675646 135.81903764 -103.51402735 129.29145173 -104.5703125 123.3515625 C-104.72757813 122.62710938 -104.88484375 121.90265625 -105.046875 121.15625 C-106.07136038 115.65261926 -104.9331367 110.44726353 -104.04296875 104.9765625 C-103.45941016 100.50100574 -103.5027459 96.18093187 -103.6953125 91.6796875 C-103.5703125 89.3515625 -103.5703125 89.3515625 -101.5703125 87.3515625 C-98.4453125 87.2265625 -98.4453125 87.2265625 -95.5703125 87.3515625 C-95.7353125 86.5884375 -95.9003125 85.8253125 -96.0703125 85.0390625 C-97.38831362 75.31880422 -96.25248204 65.65144111 -95.08105469 55.97192383 C-94.82050196 53.79064857 -94.58179911 51.60765927 -94.34375 49.42382812 C-92.99473708 37.73277011 -90.3278148 28.3939513 -82.5703125 19.3515625 C-81.75175781 18.38863281 -80.93320313 17.42570312 -80.08984375 16.43359375 C-74.5293779 10.04924422 -68.90634407 4.70879144 -61.5703125 0.3515625 C-60.78140625 -0.11894531 -59.9925 -0.58945313 -59.1796875 -1.07421875 C-40.10485096 -11.50384712 -19.06180343 -8.77448094 0 0 Z M29.4296875 14.3515625 C30.4296875 16.3515625 30.4296875 16.3515625 30.4296875 16.3515625 Z M30.4296875 16.3515625 C31.4296875 18.3515625 31.4296875 18.3515625 31.4296875 18.3515625 Z " fill="#E2E2E2" transform="translate(145.5703125,15.6484375)"/>
<path d="M0 0 C4.50387717 1.77487643 8.86895966 2.34586561 13.6484375 2.9375 C19.93277924 3.8730902 23.13693096 6.94873528 27.4296875 11.3515625 C28.2753125 11.7846875 29.1209375 12.2178125 29.9921875 12.6640625 C33.55988503 15.13400695 34.74033596 18.45114792 36.4296875 22.3515625 C36.7596875 23.0115625 37.0896875 23.6715625 37.4296875 24.3515625 C36.4396875 24.8465625 36.4396875 24.8465625 35.4296875 25.3515625 C36.13738281 26.70121094 36.13738281 26.70121094 36.859375 28.078125 C39.14238787 33.41409749 39.21017573 38.99820998 39.5546875 44.7265625 C39.70189661 46.90112517 39.85031349 49.07560646 40 51.25 C40.10308472 52.81971558 40.10308472 52.81971558 40.20825195 54.42114258 C40.39901711 56.94567861 40.66369154 59.43820718 40.98046875 61.94921875 C41.5877614 67.10299965 41.53907469 72.23122493 41.4921875 77.4140625 C41.48767578 78.37505859 41.48316406 79.33605469 41.47851562 80.32617188 C41.46686456 82.66803672 41.45050775 85.00976431 41.4296875 87.3515625 C42.60917969 87.28775391 42.60917969 87.28775391 43.8125 87.22265625 C46.4296875 87.3515625 46.4296875 87.3515625 48.3046875 89.4140625 C49.74210816 93.16732756 49.08718743 95.40656291 48.4296875 99.3515625 C48.66291985 101.3840158 48.8995663 103.41618544 49.16015625 105.4453125 C50.23772504 117.06431512 51.52708389 132.25561592 43.9921875 141.9765625 C39.61646279 146.03211224 37.34648664 146.43206317 31.4296875 146.3515625 C31.40390625 147.1971875 31.378125 148.0428125 31.3515625 148.9140625 C30.76726097 160.6000931 27.32351312 166.33580728 20.44140625 175.55859375 C18.59885826 178.11669436 16.95917181 180.69531181 15.3671875 183.4140625 C7.57272016 196.67095978 -0.86456735 207.9615376 -15.921875 213.1640625 C-27.23584726 216.04252894 -38.47722199 214.48843593 -48.59765625 208.5859375 C-59.21493484 201.18734007 -65.33251023 192.12086666 -71.4453125 180.9140625 C-73.22844868 177.72989075 -75.37876605 174.89188536 -77.5703125 171.9765625 C-83.73550555 163.54965059 -86.17924276 156.81267796 -86.5703125 146.3515625 C-87.4571875 146.4134375 -88.3440625 146.4753125 -89.2578125 146.5390625 C-94.17213825 146.26089312 -96.41093895 144.61323372 -99.6953125 141.0390625 C-102.92675646 135.81903764 -103.51402735 129.29145173 -104.5703125 123.3515625 C-104.72757813 122.62710938 -104.88484375 121.90265625 -105.046875 121.15625 C-106.07136038 115.65261926 -104.9331367 110.44726353 -104.04296875 104.9765625 C-103.45941016 100.50100574 -103.5027459 96.18093187 -103.6953125 91.6796875 C-103.5703125 89.3515625 -103.5703125 89.3515625 -101.5703125 87.3515625 C-98.4453125 87.2265625 -98.4453125 87.2265625 -95.5703125 87.3515625 C-95.7353125 86.5884375 -95.9003125 85.8253125 -96.0703125 85.0390625 C-97.38831362 75.31880422 -96.25248204 65.65144111 -95.08105469 55.97192383 C-94.82050196 53.79064857 -94.58179911 51.60765927 -94.34375 49.42382812 C-92.99473708 37.73277011 -90.3278148 28.3939513 -82.5703125 19.3515625 C-81.75175781 18.38863281 -80.93320313 17.42570312 -80.08984375 16.43359375 C-74.5293779 10.04924422 -68.90634407 4.70879144 -61.5703125 0.3515625 C-60.78140625 -0.11894531 -59.9925 -0.58945313 -59.1796875 -1.07421875 C-40.10485096 -11.50384712 -19.06180343 -8.77448094 0 0 Z M29.4296875 14.3515625 C30.4296875 16.3515625 30.4296875 16.3515625 30.4296875 16.3515625 Z M30.4296875 16.3515625 C31.4296875 18.3515625 31.4296875 18.3515625 31.4296875 18.3515625 Z M-33.5703125 12.3515625 C-33.5703125 12.6815625 -33.5703125 13.0115625 -33.5703125 13.3515625 C-32.04664062 13.46371094 -32.04664062 13.46371094 -30.4921875 13.578125 C-18.83188805 14.61475406 -9.17935578 17.01945807 -0.9453125 25.9765625 C1.27082061 28.6415327 2.98875015 31.19862038 4.4296875 34.3515625 C-8.25773131 37.7761826 -18.60969484 35.65256489 -29.7578125 29.3984375 C-39.29180605 24.07916671 -51.3424333 21.12264786 -62.09375 24.03515625 C-64.52154972 24.89130249 -64.52154972 24.89130249 -67.5703125 26.3515625 C-64.5703125 27.68489583 -64.5703125 27.68489583 -61.5703125 26.3515625 C-46.60654466 24.99298436 -33.60643978 28.98740406 -20.5703125 36.3515625 C-20.5703125 37.0115625 -20.5703125 37.6715625 -20.5703125 38.3515625 C-23.47598384 40.36938982 -26.08701034 41.70650654 -29.5703125 42.3515625 C-29.5703125 43.0115625 -29.5703125 43.6715625 -29.5703125 44.3515625 C-30.1271875 44.32835938 -30.6840625 44.30515625 -31.2578125 44.28125 C-44.33803399 43.97192044 -51.74873194 49.16691203 -61.5703125 57.3515625 C-59.5903125 55.0415625 -57.6103125 52.7315625 -55.5703125 50.3515625 C-56.5603125 50.3515625 -57.5503125 50.3515625 -58.5703125 50.3515625 C-51.65661577 46.90785805 -45.23062006 44.46488269 -37.5703125 43.3515625 C-37.5703125 42.6915625 -37.5703125 42.0315625 -37.5703125 41.3515625 C-41.73691926 41.29304274 -45.90341887 41.2577919 -50.0703125 41.2265625 C-51.24335937 41.20980469 -52.41640625 41.19304688 -53.625 41.17578125 C-59.95885469 41.1401978 -65.54887888 41.30140772 -71.5703125 43.3515625 C-72.2303125 44.0115625 -72.8903125 44.6715625 -73.5703125 45.3515625 C-72.2503125 45.3515625 -70.9303125 45.3515625 -69.5703125 45.3515625 C-69.98023437 45.82207031 -70.39015625 46.29257812 -70.8125 46.77734375 C-71.35132812 47.39996094 -71.89015625 48.02257813 -72.4453125 48.6640625 C-73.24582031 49.58638672 -73.24582031 49.58638672 -74.0625 50.52734375 C-76.76320801 53.79478065 -77.81271321 55.70833944 -77.84375 59.89453125 C-77.86163574 60.79534424 -77.87952148 61.69615723 -77.89794922 62.62426758 C-77.9135791 63.5861499 -77.92920898 64.54803223 -77.9453125 65.5390625 C-78.19816768 73.9441054 -79.22501774 81.36630906 -81.515625 89.43359375 C-82.76418779 93.85132276 -83.55221127 98.32918982 -84.3203125 102.8515625 C-84.44776855 103.60091064 -84.57522461 104.35025879 -84.70654297 105.12231445 C-84.99914967 106.86461704 -85.28546882 108.60797394 -85.5703125 110.3515625 C-85.64507812 109.7946875 -85.71984375 109.2378125 -85.796875 108.6640625 C-86.89785514 102.2740601 -89.28645874 98.16953544 -93.5703125 93.3515625 C-94.28380859 92.49691406 -94.28380859 92.49691406 -95.01171875 91.625 C-96.75112645 89.92975637 -96.75112645 89.92975637 -100.5703125 90.3515625 C-101.23207467 100.02983424 -101.7159722 109.71386327 -101.8828125 119.4140625 C-101.91246094 120.26895264 -101.94210938 121.12384277 -101.97265625 122.00463867 C-102.04319832 129.55043569 -99.72343656 135.12187641 -95.5703125 141.3515625 C-94.9103125 141.3515625 -94.2503125 141.3515625 -93.5703125 141.3515625 C-93.5703125 142.3415625 -93.5703125 143.3315625 -93.5703125 144.3515625 C-88.24860756 144.64718617 -88.24860756 144.64718617 -83.5703125 142.3515625 C-80.45075174 143.39141609 -79.72103422 144.02878304 -77.5703125 146.3515625 C-76.97089844 146.92261719 -76.37148437 147.49367187 -75.75390625 148.08203125 C-72.37890672 151.58985724 -69.65501106 155.55060556 -66.7890625 159.4765625 C-64.84278397 161.99850088 -62.95839402 164.24681269 -60.5703125 166.3515625 C-59.9103125 166.3515625 -59.2503125 166.3515625 -58.5703125 166.3515625 C-58.38855469 165.23007812 -58.38855469 165.23007812 -58.203125 164.0859375 C-58.03554687 163.10109375 -57.86796875 162.11625 -57.6953125 161.1015625 C-57.53289062 160.12703125 -57.37046875 159.1525 -57.203125 158.1484375 C-56.17072077 153.58546571 -56.17072077 153.58546571 -54.5703125 151.3515625 C-50.42552398 148.95040315 -45.98313716 147.20577756 -41.5703125 145.3515625 C-40.78140625 144.99320313 -39.9925 144.63484375 -39.1796875 144.265625 C-34.55015232 142.27893471 -31.45136606 142.430609 -26.5703125 143.3515625 C-24.89687802 143.05406304 -23.22725335 142.73029184 -21.5703125 142.3515625 C-20.9103125 142.6815625 -20.2503125 143.0115625 -19.5703125 143.3515625 C-20.5703125 146.3515625 -20.5703125 146.3515625 -22.5703125 148.3515625 C-22.2403125 148.6815625 -21.9103125 149.0115625 -21.5703125 149.3515625 C-25.03928038 151.66420775 -25.98025809 151.47260168 -30.0078125 151.2265625 C-36.79206224 151.07745811 -42.31765481 152.86823746 -48.5703125 155.3515625 C-48.5703125 156.3415625 -48.5703125 157.3315625 -48.5703125 158.3515625 C-47.57515625 158.26777344 -46.58 158.18398437 -45.5546875 158.09765625 C-34.13996495 157.23363765 -22.98355278 157.58438502 -11.5703125 158.3515625 C-17.04143487 159.89031567 -21.89707236 160.67793966 -27.5703125 160.6015625 C-28.26874268 160.59842041 -28.96717285 160.59527832 -29.68676758 160.59204102 C-34.65086476 160.5126201 -38.83052273 159.69301243 -43.5703125 158.3515625 C-46.43589203 158.61958107 -46.43589203 158.61958107 -48.5703125 159.3515625 C-48.5703125 160.0115625 -48.5703125 160.6715625 -48.5703125 161.3515625 C-49.5603125 161.6815625 -50.5503125 162.0115625 -51.5703125 162.3515625 C-52.32735755 168.28174876 -50.82656996 171.27045062 -47.36328125 176.06640625 C-42.24372223 183.57434948 -42.24372223 183.57434948 -34.71020508 187.57617188 C-24.61645457 188.4294347 -24.61645457 188.4294347 -15.00390625 186.140625 C-13.17326142 184.33121735 -11.91758802 182.54380561 -10.5703125 180.3515625 C-9.93867188 179.53300781 -9.30703125 178.71445313 -8.65625 177.87109375 C-5.20358608 173.32485699 -3.22271343 170.1144374 -2.5703125 164.3515625 C-1.5803125 164.3515625 -0.5903125 164.3515625 0.4296875 164.3515625 C1.0896875 165.3415625 1.7496875 166.3315625 2.4296875 167.3515625 C16.70906711 159.4991541 24.22783288 142.70509725 30.4296875 128.3515625 C30.40648437 129.18300781 30.38328125 130.01445312 30.359375 130.87109375 C30.34132812 131.95777344 30.32328125 133.04445313 30.3046875 134.1640625 C30.28148437 135.24300781 30.25828125 136.32195312 30.234375 137.43359375 C30.19945033 140.54559118 30.19945033 140.54559118 32.4296875 143.3515625 C37.68455319 143.07615073 37.68455319 143.07615073 41.7421875 139.9765625 C42.2990625 139.1103125 42.8559375 138.2440625 43.4296875 137.3515625 C44.4196875 135.8665625 44.4196875 135.8665625 45.4296875 134.3515625 C46.76969956 129.75323314 46.55695281 125.07788733 46.52734375 120.33203125 C46.5259288 119.47346024 46.52451385 118.61488922 46.52305603 117.7303009 C46.51747807 114.99985201 46.50492964 112.26948643 46.4921875 109.5390625 C46.48716965 107.6829439 46.48260724 105.826824 46.47851562 103.97070312 C46.46751586 99.4309577 46.45026643 94.8912742 46.4296875 90.3515625 C42.66646159 90.07473473 42.66646159 90.07473473 39.515625 91.890625 C34.63252114 97.84399819 31.60572198 102.63249982 30.4296875 110.3515625 C30.31693481 109.38500732 30.31693481 109.38500732 30.2019043 108.39892578 C29.84950443 105.42363744 29.48342326 102.4501782 29.1171875 99.4765625 C28.99923828 98.46335937 28.88128906 97.45015625 28.75976562 96.40625 C27.85975965 89.20620216 26.7070447 81.9062769 23.4296875 75.3515625 C23.33587733 73.75206278 23.29789667 72.14909897 23.2890625 70.546875 C23.22852623 56.15529521 23.22852623 56.15529521 18.5859375 42.75390625 C17.24416356 39.9660989 16.81991777 37.40688816 16.4296875 34.3515625 C15.78902344 34.31160156 15.14835937 34.27164063 14.48828125 34.23046875 C10.43873789 33.7416267 7.44578299 33.34155277 4.453125 30.42578125 C3.297093 28.85537249 2.16466063 27.26735702 1.0546875 25.6640625 C-3.96321404 18.52320262 -11.22686835 14.59525935 -19.5703125 12.3515625 C-24.2745487 11.97806033 -28.8646048 12.03831273 -33.5703125 12.3515625 Z " fill="#191919" transform="translate(145.5703125,15.6484375)"/>
<path d="M0 0 C17.20813914 4.65466059 17.20813914 4.65466059 21 11 C21.73046875 14.015625 21.73046875 14.015625 22.1875 17.25 C22.34605469 18.32765625 22.50460938 19.4053125 22.66796875 20.515625 C22.77753906 21.33546875 22.88710937 22.1553125 23 23 C22.01 23.33 21.02 23.66 20 24 C19.34 23.01 18.68 22.02 18 21 C17.34 21 16.68 21 16 21 C15.86658203 22.31484375 15.86658203 22.31484375 15.73046875 23.65625 C14.90677271 27.42675164 13.62513671 29.43410448 11.3125 32.5 C10.64863281 33.3971875 9.98476562 34.294375 9.30078125 35.21875 C8.54152344 36.1365625 7.78226563 37.054375 7 38 C6.57887939 38.5455957 6.15775879 39.09119141 5.72387695 39.65332031 C2.91389137 42.94377482 0.86691606 44.37612543 -3.49609375 44.796875 C-5.1432275 44.81267484 -6.79094259 44.79634563 -8.4375 44.75 C-9.25798828 44.77320313 -10.07847656 44.79640625 -10.92382812 44.8203125 C-16.48876665 44.767017 -19.55120528 43.53687201 -23.5324707 39.63964844 C-25.49804686 37.44353973 -27.24154284 35.20394947 -28.875 32.75 C-29.44992188 31.89921875 -30.02484375 31.0484375 -30.6171875 30.171875 C-33.11822544 26.24369111 -33.08643006 23.66722312 -33 19 C-32.01 18.67 -31.02 18.34 -30 18 C-29.67 17.01 -29.34 16.02 -29 15 C-21.37623762 15.88943894 -21.37623762 15.88943894 -19.21875 16.5234375 C-15.91190564 17.23371041 -12.61603998 17.18437171 -9.25 17.1875 C-8.57195312 17.19974609 -7.89390625 17.21199219 -7.1953125 17.22460938 C-2.16450883 17.23895577 2.16005612 16.37276435 7 15 C-12.0142078 13.92719987 -12.0142078 13.92719987 -31 15 C-30 12 -30 12 -27.69921875 10.83203125 C-21.06708225 8.58691111 -15.50093415 7.62676896 -8.49609375 8.0546875 C-5.74544795 8.21765668 -5.74544795 8.21765668 -3 6 C-3.33 5.34 -3.66 4.68 -4 4 C-2.68 2.68 -1.36 1.36 0 0 Z " fill="#E0DEDC" transform="translate(127,159)"/>
<path d="M0 0 C1.30048841 2.60097682 1.56471422 5.13955062 2 8 C4.71301894 7.39119619 6.74943524 6.64649281 9.3125 5.4375 C21.75027275 0.8164421 35.25318717 4.69551828 46.86962891 9.82568359 C50.31195292 11.43098474 53.6740953 13.16697298 57 15 C53.46875 19.8984375 53.46875 19.8984375 49.25 20.8125 C47.64125 20.9053125 47.64125 20.9053125 46 21 C46 21.66 46 22.32 46 23 C44.56720703 23.09474609 44.56720703 23.09474609 43.10546875 23.19140625 C30.72520107 24.36401386 22.43617235 28.65180902 14 38 C13.34 37.67 12.68 37.34 12 37 C14.31 34.69 16.62 32.38 19 30 C17.68 30.33 16.36 30.66 15 31 C19.66887382 25.78512423 26.38684972 22.62381498 33.33984375 21.68359375 C35.25 21.6875 35.25 21.6875 38 22 C38 21.34 38 20.68 38 20 C33.8119878 20.11053009 29.62482197 20.2410057 25.4375 20.375 C24.25607422 20.4059375 23.07464844 20.436875 21.85742188 20.46875 C15.91248725 20.66857974 10.61301523 20.97239097 5 23 C5.66 23.33 6.32 23.66 7 24 C5.68 24.99 4.36 25.98 3 27 C2.34 26.67 1.68 26.34 1 26 C-1.11683841 26.89163577 -1.11683841 26.89163577 -3 28 C-2.67 26.68 -2.34 25.36 -2 24 C-2.66 24 -3.32 24 -4 24 C-4.33 24.66 -4.66 25.32 -5 26 C-5 25.34 -5 24.68 -5 24 C-5.66 24 -6.32 24 -7 24 C-7.69428374 15.8074519 -5.50100989 9.39455724 -2 2 C-1.34 1.34 -0.68 0.68 0 0 Z " fill="#1C1C1C" transform="translate(70,37)"/>
<path d="M0 0 C-0.33 0.99 -0.66 1.98 -1 3 C-2.258125 3.061875 -3.51625 3.12375 -4.8125 3.1875 C-10.76347184 3.81292061 -15.71586757 6.3233647 -21 9 C-20.34 9.33 -19.68 9.66 -19 10 C-18.505 11.485 -18.505 11.485 -18 13 C-17.34 13 -16.68 13 -16 13 C-16 12.34 -16 11.68 -16 11 C-14.68 11.66 -13.36 12.32 -12 13 C-15.37097383 14.49821059 -17.20442119 15 -21 15 C-21 16.32 -21 17.64 -21 19 C-24.29549466 20.72264494 -27.33118845 22.29445932 -31 23 C-31 23.99 -31 24.98 -31 26 C-31.66 26 -32.32 26 -33 26 C-33.66 27.32 -34.32 28.64 -35 30 C-35.99 30 -36.98 30 -38 30 C-41.08963187 37.37635358 -43.59200675 43.97613274 -44 52 C-42.35 52 -40.7 52 -39 52 C-39 52.99 -39 53.98 -39 55 C-37.68 54.34 -36.36 53.68 -35 53 C-34.67 53.99 -34.34 54.98 -34 56 C-34.9609375 57.875 -34.9609375 57.875 -36.375 60 C-39.12179108 64.59052755 -39.55886479 68.32307937 -39.56640625 73.6171875 C-40 76 -40 76 -42.02734375 77.8203125 C-43.00380859 78.40425781 -43.00380859 78.40425781 -44 79 C-43.67 78.484375 -43.34 77.96875 -43 77.4375 C-41.67989123 74.21973488 -41.86757895 71.4429472 -42 68 C-48.75817615 74.41647062 -53.08611385 79.7495503 -55 89 C-55.99 88.67 -56.98 88.34 -58 88 C-58.28838803 79.45021043 -57.53609436 71.09285774 -56.51074219 62.62036133 C-56.25018946 60.43908607 -56.01148661 58.25609677 -55.7734375 56.07226562 C-54.42442458 44.38120761 -51.7575023 35.0423888 -44 26 C-42.77216797 24.55560547 -42.77216797 24.55560547 -41.51953125 23.08203125 C-31.20279896 11.2366883 -16.61800361 -0.81063432 0 0 Z " fill="#191919" transform="translate(107,9)"/>
<path d="M0 0 C4.24234863 0.48922093 5.98261025 1.53624028 8.6875 4.8125 C9.26886719 5.49957031 9.85023437 6.18664062 10.44921875 6.89453125 C13.11797691 10.51785783 14.23578683 13.35040893 14.52734375 17.8515625 C14.59759766 18.78613281 14.66785156 19.72070312 14.74023438 20.68359375 C14.87016259 22.62093929 14.99782425 24.55843837 15.12304688 26.49609375 C15.77921389 35.1385818 17.61445639 42.91924182 21.6875 50.625 C22.34298828 51.88183594 22.34298828 51.88183594 23.01171875 53.1640625 C23.50091797 54.07285156 23.50091797 54.07285156 24 55 C23.01 55 22.02 55 21 55 C20.34 54.34 19.68 53.68 19 53 C16.0745356 52.7763932 16.0745356 52.7763932 14 54 C11.6670134 54.04022391 9.33293334 54.04320247 7 54 C7 53.01 7 52.02 7 51 C6.01 50.67 5.02 50.34 4 50 C-0.71405998 43.40031602 -1.30231796 37.08847859 -1.1875 29.25 C-1.18105469 28.33710205 -1.17460938 27.4242041 -1.16796875 26.48364258 C-1.0700794 17.63918651 -0.6032646 8.82274479 0 0 Z " fill="#252525" transform="translate(45,106)"/>
<path d="M0 0 C0.04958399 5.44432256 0.08580666 10.88851249 0.10986328 16.33300781 C0.11989631 18.18361706 0.13352586 20.03421055 0.15087891 21.88476562 C0.17524608 24.5508209 0.18651023 27.21666584 0.1953125 29.8828125 C0.20563507 30.70492218 0.21595764 31.52703186 0.22659302 32.37405396 C0.22802914 39.79277385 -1.48657333 44.98209777 -6 51 C-9.20808915 53.1387261 -10.27698497 53.47730962 -14 53 C-16.33231383 49.50152926 -16.18951999 48.17286691 -16.0625 44.0625 C-15.88684159 40.03619823 -15.88684159 40.03619823 -16.51196289 36.09619141 C-18.35866227 28.16434503 -16.51357952 15.65945508 -12.6875 8.5625 C-11.35546875 6.6328125 -11.35546875 6.6328125 -10 5 C-9.175 3.989375 -8.35 2.97875 -7.5 1.9375 C-4.60424376 -0.30671109 -3.5339509 -0.18258746 0 0 Z " fill="#2C2C2C" transform="translate(192,106)"/>
<path d="M0 0 C0.33 0 0.66 0 1 0 C1.42482591 10.85666207 1.07365604 20.45099799 -1.91015625 30.91015625 C-3.21478352 35.54691861 -3.99129967 40.24794297 -4.75 45 C-4.87737549 45.79672119 -5.00475098 46.59344238 -5.13598633 47.41430664 C-5.42927736 49.27537901 -5.71546198 51.1375693 -6 53 C-6.66 52.67 -7.32 52.34 -8 52 C-8.421875 50.21484375 -8.421875 50.21484375 -8.75 47.9375 C-9.82411197 42.50630478 -12.5254007 39.1732959 -16 35 C-18 32 -18 32 -17.625 30.0625 C-17.315625 29.0415625 -17.315625 29.0415625 -17 28 C-17 26.68 -17 25.36 -17 24 C-16.34 24 -15.68 24 -15 24 C-14.979375 22.865625 -14.95875 21.73125 -14.9375 20.5625 C-14.06345291 13.52017773 -8.80063629 8.35250059 -3.5625 3.9375 C-2.716875 3.298125 -1.87125 2.65875 -1 2 C-0.875 9.75 -0.875 9.75 -2 12 C-0.26043342 10.26043342 -0.62809614 7.8063378 -0.4375 5.4375 C-0.35371094 4.42558594 -0.26992187 3.41367188 -0.18359375 2.37109375 C-0.09271484 1.19740234 -0.09271484 1.19740234 0 0 Z " fill="#1C1C1C" transform="translate(67,74)"/>
<path d="M0 0 C17.20813914 4.65466059 17.20813914 4.65466059 21 11 C21.73046875 14.015625 21.73046875 14.015625 22.1875 17.25 C22.34605469 18.32765625 22.50460938 19.4053125 22.66796875 20.515625 C22.77753906 21.33546875 22.88710937 22.1553125 23 23 C22.01 23.33 21.02 23.66 20 24 C19.34 23.01 18.68 22.02 18 21 C17.34 21 16.68 21 16 21 C15.67 22.32 15.34 23.64 15 25 C14.87625 24.030625 14.7525 23.06125 14.625 22.0625 C14.41875 21.051875 14.2125 20.04125 14 19 C13.34 18.67 12.68 18.34 12 18 C12 16.68 12 15.36 12 14 C8.1263124 13.97480591 4.25265815 13.95691325 0.37890625 13.94506836 C-1.56772545 13.93771631 -3.51433456 13.92499422 -5.4609375 13.91210938 C-14.03115367 13.89024658 -22.46257506 14.26692198 -31 15 C-30 12 -30 12 -27.69921875 10.83203125 C-21.06708225 8.58691111 -15.50093415 7.62676896 -8.49609375 8.0546875 C-5.74544795 8.21765668 -5.74544795 8.21765668 -3 6 C-3.33 5.34 -3.66 4.68 -4 4 C-2.68 2.68 -1.36 1.36 0 0 Z " fill="#1E1E1E" transform="translate(127,159)"/>
<path d="M0 0 C3.22808724 3.19596697 6.31707047 6.32339287 9 10 C9 10.66 9 11.32 9 12 C9.92255036 13.23586935 10.88815316 14.43983944 11.875 15.625 C15.0228657 19.67861951 16.10353439 22.97979258 17 28 C15.68 28 14.36 28 13 28 C13 28.99 13 29.98 13 31 C12.01 31.33 11.02 31.66 10 32 C10.99 32.99 11.98 33.98 13 35 C12.01 35.495 12.01 35.495 11 36 C12.32 36.33 13.64 36.66 15 37 C15.33 36.34 15.66 35.68 16 35 C16 38 16 38 13.625 40.875 C9.80266249 45.88843419 9.61456301 51.90023279 9 58 C7.2712431 54.94800255 6.63404137 52.40602793 6.25390625 48.9296875 C6.13853516 47.95 6.02316406 46.9703125 5.90429688 45.9609375 C5.67904405 43.92722629 5.45505525 41.89337463 5.23242188 39.859375 C4.38707798 32.70430954 3.25480314 25.50960627 0 19 C-0.08342159 17.55151418 -0.10732861 16.09929131 -0.09765625 14.6484375 C-0.09443359 13.79765625 -0.09121094 12.946875 -0.08789062 12.0703125 C-0.07951172 11.18085937 -0.07113281 10.29140625 -0.0625 9.375 C-0.05798828 8.4778125 -0.05347656 7.580625 -0.04882812 6.65625 C-0.03702591 4.43743352 -0.02056155 2.21874982 0 0 Z " fill="#1C1C1C" transform="translate(168,72)"/>
<path d="M0 0 C-0.33 0.99 -0.66 1.98 -1 3 C-2.258125 3.061875 -3.51625 3.12375 -4.8125 3.1875 C-10.76347184 3.81292061 -15.71586757 6.3233647 -21 9 C-20.34 9.33 -19.68 9.66 -19 10 C-18.505 11.485 -18.505 11.485 -18 13 C-17.34 13 -16.68 13 -16 13 C-16 12.34 -16 11.68 -16 11 C-14.68 11.66 -13.36 12.32 -12 13 C-15.37097383 14.49821059 -17.20442119 15 -21 15 C-21 16.32 -21 17.64 -21 19 C-24.29549466 20.72264494 -27.33118845 22.29445932 -31 23 C-31 23.99 -31 24.98 -31 26 C-31.66 26 -32.32 26 -33 26 C-33.66 27.32 -34.32 28.64 -35 30 C-35.99 30 -36.98 30 -38 30 C-39.32 32.97 -40.64 35.94 -42 39 C-45.465 37.515 -45.465 37.515 -49 36 C-49.99 38.97 -50.98 41.94 -52 45 C-52.33 45 -52.66 45 -53 45 C-52.44448005 32.22304113 -41.79112834 22.31888867 -33 14 C-23.90005711 6.37961617 -12.18161539 -0.59422514 0 0 Z " fill="#161616" transform="translate(107,9)"/>
<path d="M0 0 C1.98 0 3.96 0 6 0 C6 0.66 6 1.32 6 2 C6.9590625 2.1546875 6.9590625 2.1546875 7.9375 2.3125 C8.618125 2.539375 9.29875 2.76625 10 3 C10.33 3.99 10.66 4.98 11 6 C11.33 5.01 11.66 4.02 12 3 C12.185625 3.7425 12.37125 4.485 12.5625 5.25 C14.49952309 8.9556094 17.1211267 10.68883156 21 12 C25.31478797 11.85617373 27.40245996 11.39836003 31 9 C33.19140625 8.33203125 33.19140625 8.33203125 35.5625 7.8125 C36.34753906 7.63332031 37.13257813 7.45414063 37.94140625 7.26953125 C40 7 40 7 42 8 C40.86161032 12.17409551 38.81127691 15.60349305 35.72265625 18.59375 C31.70672554 20.66797533 27.96888785 20.74554558 23.5 20.8125 C22.27132202 20.84790894 22.27132202 20.84790894 21.01782227 20.8840332 C15.43767786 20.76432621 12.42897803 19.46024134 8.43847656 15.55737305 C4.02576411 10.77993029 0.33923923 6.78478459 0 0 Z " fill="#E1E1E0" transform="translate(95,183)"/>
<path d="M0 0 C5.45173609 1.55763888 8.20501736 5.05109996 11.09375 9.796875 C13.18442929 14.87938845 13.873031 21.87163891 12.390625 27.18359375 C11.5625 28.8125 11.5625 28.8125 10 31 C7.49701566 28.06171403 6.53069061 25.82097239 6 22 C5.11248047 21.90525391 5.11248047 21.90525391 4.20703125 21.80859375 C-0.30898028 21.10872247 -3.26570198 20.41349742 -6.125 16.6875 C-7.73654398 14.05842825 -8.01519144 13.23799926 -7.8125 10.0625 C-7.544375 9.381875 -7.27625 8.70125 -7 8 C-7.66 8 -8.32 8 -9 8 C-8.67 7.34 -8.34 6.68 -8 6 C-7.34 6.33 -6.68 6.66 -6 7 C-5.67 6.01 -5.34 5.02 -5 4 C-2.03 4.495 -2.03 4.495 1 5 C0.67 3.35 0.34 1.7 0 0 Z " fill="#252525" transform="translate(155,29)"/>
<path d="M0 0 C3.96440504 1.27427305 5.37808023 3.69032368 7.2578125 7.1875 C8.21281093 9.5197067 8.14241727 11.50769777 8 14 C8.66 14.66 9.32 15.32 10 16 C9.505 17.485 9.505 17.485 9 19 C7.66598223 18.56459142 6.33283226 18.12652414 5 17.6875 C3.76636719 17.28337891 3.76636719 17.28337891 2.5078125 16.87109375 C0.24588621 16.08540907 -1.92312322 15.18687698 -4.125 14.25 C-8.01972208 12.74786067 -10.89663791 13.22578074 -15 14 C-15.825 13.814375 -16.65 13.62875 -17.5 13.4375 C-21.0171274 12.8220027 -23.66152947 13.88717649 -27 15 C-27 14.34 -27 13.68 -27 13 C-27.66 12.67 -28.32 12.34 -29 12 C-29 7 -29 7 -28 6 C-23.09678337 6.37717051 -20.14278431 7.49252528 -16 10 C-12.29574461 10.66486635 -11.18503577 10.12335718 -8 8 C-4.87891147 5.91927431 -3.63708491 5.57210766 0 6 C0.33 6.66 0.66 7.32 1 8 C1.20970559 3.85906302 1.20970559 3.85906302 0 0 Z " fill="#DDDDDD" transform="translate(132,145)"/>
<path d="M0 0 C4.32221624 6.48332436 3.13077569 15.51541016 3.0625 23.0625 C3.05798828 24.02349609 3.05347656 24.98449219 3.04882812 25.97460938 C3.03717706 28.31647422 3.02082025 30.65820181 3 33 C3.78632813 32.95746094 4.57265625 32.91492188 5.3828125 32.87109375 C8 33 8 33 9.875 35.0625 C11.31242066 38.81576506 10.65749993 41.05500041 10 45 C10.23280793 47.02875482 10.46951054 49.05721213 10.734375 51.08203125 C11.65764851 61.22446233 12.66830454 73.66339092 8 83 C7.34 83 6.68 83 6 83 C6.16371094 81.85112305 6.32742187 80.70224609 6.49609375 79.51855469 C7.03084837 75.22424872 7.11289041 71.02508144 7.0625 66.703125 C7.05871338 65.9470697 7.05492676 65.1910144 7.05102539 64.41204834 C7.03893005 62.02463736 7.02029324 59.63735445 7 57.25 C6.97336387 54.08854499 6.95341471 50.92715009 6.9375 47.765625 C6.92920166 47.0457843 6.92090332 46.3259436 6.91235352 45.58428955 C6.89597807 42.24000318 6.95311004 39.19631166 8 36 C7.38511719 36.20496094 6.77023438 36.40992188 6.13671875 36.62109375 C2.7578125 37.74739583 -0.62109375 38.87369792 -4 40 C-6.32039314 36.51941029 -6 36.01857088 -6 32 C-5.01 32.33 -4.02 32.66 -3 33 C-3 32.01 -3 31.02 -3 30 C-1.68 30 -0.36 30 1 30 C0.8246875 29.47277344 0.649375 28.94554688 0.46875 28.40234375 C-0.32793583 24.31932885 0.42467136 20.30123429 0.84375 16.19140625 C0.99089732 13.18592221 0.66011805 10.91030148 0 8 C-0.11678799 5.32321927 -0.0454506 2.68158543 0 0 Z " fill="#171717" transform="translate(184,70)"/>
<path d="M0 0 C0 12.87 0 25.74 0 39 C-0.33 39 -0.66 39 -1 39 C-1.18175781 37.40671875 -1.18175781 37.40671875 -1.3671875 35.78125 C-2.311521 26.96243853 -2.311521 26.96243853 -4.1875 18.3125 C-4.99859012 15.00574796 -4.97440172 13.21552566 -4 10 C-4 9.67 -4 9.34 -4 9 C-7.34169478 13.8665458 -10.52303815 18.63324933 -13 24 C-13.33 24 -13.66 24 -14 24 C-15.42796394 17.22777496 -15.24184353 12.87506837 -11.4609375 6.984375 C-6.31889764 0 -6.31889764 0 0 0 Z " fill="#D5D5D5" transform="translate(192,106)"/>
<path d="M0 0 C0 0.99 0 1.98 0 3 C-0.80518066 2.96447021 -1.61036133 2.92894043 -2.43994141 2.89233398 C-5.50010079 2.76115927 -8.56045463 2.6372381 -11.62109375 2.51782227 C-13.56793142 2.43978747 -15.51444535 2.35380257 -17.4609375 2.26757812 C-26.07848983 1.93782485 -34.41609139 2.20310084 -43 3 C-42 0 -42 0 -39.875 -1.16796875 C-26.24935363 -5.99988954 -13.36472773 -5.20643306 0 0 Z " fill="#C4C4C4" transform="translate(139,171)"/>
<path d="M0 0 C0.50660156 0.16242188 1.01320313 0.32484375 1.53515625 0.4921875 C4.8630629 1.17781011 8.04168819 1.13173104 11.4375 1.125 C13.38462891 1.12886719 13.38462891 1.12886719 15.37109375 1.1328125 C18.40111541 1.02191827 21.06498638 0.71254666 24 0 C23.875 3.25 23.875 3.25 23 7 C19.01166331 10.6084951 15.36949763 12 10 12 C6.50677069 10.60695107 3.66727902 8.66727902 1 6 C0.60235737 4.01178687 0.26224651 2.01055661 0 0 Z " fill="#2E2A25" transform="translate(106,184)"/>
<path d="M0 0 C0.042721 1.66611905 0.04063832 3.33382885 0 5 C-0.33 5.33 -0.66 5.66 -1 6 C-3.33954855 5.71352467 -5.67212073 5.36950465 -8 5 C-18.48003326 3.47870485 -26.75590922 3.01852949 -36 9 C-34.56314642 3.97101246 -32.05763331 2.04322498 -28 -1 C-20.33109704 -4.83445148 -8.0323316 -1.3308005 0 0 Z " fill="#101010" transform="translate(108,104)"/>
<path d="M0 0 C2.875 2.5625 2.875 2.5625 5 5 C5 5.66 5 6.32 5 7 C3.9790625 6.566875 3.9790625 6.566875 2.9375 6.125 C-7.50383088 2.12619243 -15.43375793 2.70323834 -26.27734375 4.7578125 C-27.17582031 4.83773437 -28.07429687 4.91765625 -29 5 C-29.66 4.34 -30.32 3.68 -31 3 C-31 1.68 -31 0.36 -31 -1 C-7.43274854 -5.25730994 -7.43274854 -5.25730994 0 0 Z " fill="#1B1B1B" transform="translate(159,105)"/>
<path d="M0 0 C0.33 0 0.66 0 1 0 C1 6.27 1 12.54 1 19 C0.34 18.01 -0.32 17.02 -1 16 C-1.763125 16.763125 -2.52625 17.52625 -3.3125 18.3125 C-5.20833333 20.20833333 -7.10416667 22.10416667 -9 24 C-8.34 22.02 -7.68 20.04 -7 18 C-10.99853991 19.33284664 -11.78497669 21.52979682 -14 25 C-14.33 25 -14.66 25 -15 25 C-14.87227261 16.95317471 -12.50961833 12.78957861 -7 7 C-5.06235918 5.19293932 -3.11726029 3.60085534 -1 2 C-0.875 9.75 -0.875 9.75 -2 12 C-0.26043342 10.26043342 -0.62809614 7.8063378 -0.4375 5.4375 C-0.35371094 4.42558594 -0.26992187 3.41367188 -0.18359375 2.37109375 C-0.12300781 1.58863281 -0.06242187 0.80617188 0 0 Z " fill="#4B4B4B" transform="translate(67,74)"/>
<path d="M0 0 C4.28180901 3.96282037 6.83314545 8.66403627 7.25 14.5 C7.1675 15.325 7.085 16.15 7 17 C7.33 17 7.66 17 8 17 C8.33 19.64 8.66 22.28 9 25 C8.01 25.33 7.02 25.66 6 26 C4.24609375 24.92578125 4.24609375 24.92578125 2.4375 23.3125 C1.83808594 22.79300781 1.23867188 22.27351563 0.62109375 21.73828125 C-1.10127958 19.891399 -2.09137867 18.35226841 -3 16 C-2.5747899 10.57857117 -1.2352073 5.28860601 0 0 Z " fill="#E3E3E3" transform="translate(50,120)"/>
<path d="M0 0 C5 5 5 5 6.5 6.75 C8.5327485 8.44395709 10.41794457 8.65107359 13 9 C13.05399736 10.45792884 13.09279177 11.91642712 13.125 13.375 C13.14820313 14.18710938 13.17140625 14.99921875 13.1953125 15.8359375 C13 18 13 18 11 20 C8.6875 20.4375 8.6875 20.4375 6 20 C3.12425455 17.52552136 1.10382653 15.1557398 -1 12 C-0.625 9.8125 -0.625 9.8125 0 8 C0.33 8.33 0.66 8.66 1 9 C0.67 8.34 0.34 7.68 0 7 C-0.04022391 4.6670134 -0.04320247 2.33293334 0 0 Z " fill="#E1E1E1" transform="translate(47,139)"/>
<path d="M0 0 C0.33 0 0.66 0 1 0 C1.2706664 6.76666011 0.44278222 11.74943919 -4 17 C-2.68 16.67 -1.36 16.34 0 16 C-1.25573244 19.8718417 -2.36808079 22.02838671 -6 24 C-8.625 24.375 -8.625 24.375 -11 24 C-13.4294516 20.3558226 -13.16179575 18.28758728 -13 14 C-11.6696875 13.38125 -11.6696875 13.38125 -10.3125 12.75 C-5.37792156 10.1430529 -2.58079408 8.65941167 -0.6875 3.25 C-0.460625 2.1775 -0.23375 1.105 0 0 Z " fill="#E3E3E3" transform="translate(189,135)"/>
<path d="M0 0 C0.59280762 0.0714624 1.18561523 0.1429248 1.79638672 0.21655273 C8.26434122 0.93738278 14.62130583 1.12187361 21.125 1.0625 C22.08148438 1.05798828 23.03796875 1.05347656 24.0234375 1.04882812 C26.34902758 1.03720017 28.6744776 1.02086102 31 1 C30.34 1.66 29.68 2.32 29 3 C29.66 3.66 30.32 4.32 31 5 C24.78286438 8.39116489 19.01368448 8.8476033 12 8 C7.07651137 6.44395416 3.37386846 3.93617987 0 0 Z " fill="#E4E4E4" transform="translate(100,175)"/>
<path d="M0 0 C9 9 9 9 9 12 C9.94428664 13.25616113 10.93028397 14.48121068 11.9375 15.6875 C14.9429227 19.55565581 15.79776005 22.14624113 16 27 C13.04070881 24.24479785 10.96318174 21.53372712 9 18 C6.83333333 18.83333333 6.83333333 18.83333333 6 21 C4.68 19.35 3.36 17.7 2 16 C1.34 16.99 0.68 17.98 0 19 C0 12.73 0 6.46 0 0 Z " fill="#3E3E3E" transform="translate(168,72)"/>
<path d="M0 0 C2.98479194 4.47718792 4 8.63824093 4 14 C3.34 14 2.68 14 2 14 C2.144375 14.845625 2.28875 15.69125 2.4375 16.5625 C1.79511745 21.60979149 -1.26716175 23.78137926 -5 27 C-5.33 26.34 -5.66 25.68 -6 25 C-5.67 24.34 -5.34 23.68 -5 23 C-5.05812258 20.81168502 -5.14621198 18.62412497 -5.25 16.4375 C-5.33371642 9.66344669 -4.00854876 5.41154082 0 0 Z " fill="#E2E2E2" transform="translate(185,120)"/>
<path d="M0 0 C2.0625 1.3125 2.0625 1.3125 4 4 C4.14301713 8.64805663 3.39284118 13.17289302 2.41796875 17.70703125 C1.96794001 20.17588049 2.32085948 21.62300817 3 24 C2.67 24.33 2.34 24.66 2 25 C1.6027269 29.96824879 1.6027269 29.96824879 3.5 34.4375 C3.995 34.953125 4.49 35.46875 5 36 C4.67 36.66 4.34 37.32 4 38 C2.5 36.625 2.5 36.625 1 35 C1 34.34 1 33.68 1 33 C0.34 33 -0.32 33 -1 33 C-2.82754904 29.34490192 -2.18474067 25.02310749 -2.1875 21 C-2.19974609 20.09121094 -2.21199219 19.18242187 -2.22460938 18.24609375 C-2.23806568 11.93957421 -1.46705049 6.13085801 0 0 Z " fill="#808080" transform="translate(46,114)"/>
<path d="M0 0 C0.94875 0.04125 1.8975 0.0825 2.875 0.125 C2.875 1.115 2.875 2.105 2.875 3.125 C1.225 3.125 -0.425 3.125 -2.125 3.125 C-2.125 17.645 -2.125 32.165 -2.125 47.125 C-2.785 47.125 -3.445 47.125 -4.125 47.125 C-6.16681927 36.82808349 -7.69356569 27.81045095 -5.66796875 17.36328125 C-4.93998924 13.0215905 -5.06237791 8.83879142 -5.25 4.453125 C-5.04248364 0.58813274 -3.70396417 0.14815857 0 0 Z " fill="#101010" transform="translate(47.125,102.875)"/>
<path d="M0 0 C4.24234863 0.48922093 5.98261025 1.53624028 8.6875 4.8125 C9.26886719 5.49957031 9.85023437 6.18664062 10.44921875 6.89453125 C13.46502599 10.98904032 14.2470397 13.62433265 14.125 18.75 C14.10695313 19.73484375 14.08890625 20.7196875 14.0703125 21.734375 C14.03550781 22.85585937 14.03550781 22.85585937 14 24 C13.34 24 12.68 24 12 24 C11.63648438 23.21496094 11.27296875 22.42992187 10.8984375 21.62109375 C8.14612129 15.8694586 5.49181019 11.10848583 1.125 6.46875 C0 5 0 5 -0.375 2.0625 C-0.25125 1.381875 -0.1275 0.70125 0 0 Z " fill="#E1E1E1" transform="translate(45,106)"/>
<path d="M0 0 C0.28571429 8.57142857 0.28571429 8.57142857 -2 12 C-3.32 11.67 -4.64 11.34 -6 11 C-6 11.66 -6 12.32 -6 13 C-6.598125 13.103125 -7.19625 13.20625 -7.8125 13.3125 C-10.28243264 14.08876455 -11.32251235 15.07088921 -13 17 C-13 14 -13 14 -12 12 C-14.35785318 12.89335797 -14.35785318 12.89335797 -15.125 16.0625 C-15.41375 17.031875 -15.7025 18.00125 -16 19 C-16.66 18.34 -17.32 17.68 -18 17 C-17.625 15.125 -17.625 15.125 -17 13 C-17 11.68 -17 10.36 -17 9 C-16.01 9 -15.02 9 -14 9 C-13.34 8.01 -12.68 7.02 -12 6 C-11.34 5.01 -10.68 4.02 -10 3 C-9.01 3 -8.02 3 -7 3 C-7 3.99 -7 4.98 -7 6 C-6.071875 4.7934375 -6.071875 4.7934375 -5.125 3.5625 C-2.17073171 0 -2.17073171 0 0 0 Z " fill="#242424" transform="translate(67,89)"/>
<path d="M0 0 C6.24825923 -0.55788029 11.27493768 0.44648337 17.1875 2.3125 C18.20263672 2.63190552 18.20263672 2.63190552 19.23828125 2.95776367 C22.35791409 3.98426051 25.15774903 5.08217345 28.08203125 6.60546875 C31.304961 8.14574442 33.96244304 8.59570778 37.5 9 C45.22026505 10.0790825 49.77971382 12.07426974 55 18 C56.875 20.625 56.875 20.625 58 23 C57.505 24.485 57.505 24.485 57 26 C56.61328125 25.38511719 56.2265625 24.77023438 55.828125 24.13671875 C55.04695313 22.92435547 55.04695313 22.92435547 54.25 21.6875 C53.48429687 20.48673828 53.48429687 20.48673828 52.703125 19.26171875 C50.01663323 15.69410698 47.40758796 13.78706928 43 13 C43.495 13.495 43.495 13.495 44 14 C43.01 14.99 42.02 15.98 41 17 C40.01 16.34 39.02 15.68 38 15 C38.66 15 39.32 15 40 15 C40.33 13.68 40.66 12.36 41 11 C39.741875 11.103125 38.48375 11.20625 37.1875 11.3125 C31.95363174 11.34557342 28.17470268 9.55017638 23.578125 7.19140625 C20.97179439 5.98696559 18.82001251 5.49114877 16 5 C13.22160498 4.34286477 10.45537026 3.63750651 7.6875 2.9375 C6.94693359 2.75123047 6.20636719 2.56496094 5.44335938 2.37304688 C3.62863559 1.91643895 1.81428029 1.45836694 0 1 C0 0.67 0 0.34 0 0 Z " fill="#0B0B0B" transform="translate(118,9)"/>
<path d="M0 0 C1.33786328 0.0534236 2.67575414 0.10616121 4.01367188 0.15820312 C7.2386161 0.2862695 10.46311593 0.42113869 13.6875 0.5625 C13.6875 0.8925 13.6875 1.2225 13.6875 1.5625 C1.42081543 5.09127227 -10.96545883 6.36158959 -23.3125 2.5625 C-24.6325 2.5625 -25.9525 2.5625 -27.3125 2.5625 C-27.6425 3.2225 -27.9725 3.8825 -28.3125 4.5625 C-28.9725 4.5625 -29.6325 4.5625 -30.3125 4.5625 C-30.3125 3.5725 -30.3125 2.5825 -30.3125 1.5625 C-21.98730848 -2.60009576 -9.01292914 -0.39662359 0 0 Z " fill="#737373" transform="translate(125.3125,172.4375)"/>
<path d="M0 0 C4.90321663 0.37717051 7.85721569 1.49252528 12 4 C15.70425539 4.66486635 16.81496423 4.12335718 20 2 C23.12108853 -0.08072569 24.36291509 -0.42789234 28 0 C28 0.66 28 1.32 28 2 C26.1746875 2.37125 26.1746875 2.37125 24.3125 2.75 C21.163868 3.50677646 19.986909 4.01117524 17.4375 6.1875 C15 8 15 8 11.625 7.625 C10.42875 7.41875 9.2325 7.2125 8 7 C5.5392958 7.44609257 3.37365698 8.17648635 1 9 C1 8.34 1 7.68 1 7 C0.34 6.67 -0.32 6.34 -1 6 C-1 1 -1 1 0 0 Z " fill="#919191" transform="translate(104,151)"/>
<path d="M0 0 C2.625 1.6875 2.625 1.6875 4.625 4.6875 C3.305 5.0175 1.985 5.3475 0.625 5.6875 C0.625 4.6975 0.625 3.7075 0.625 2.6875 C-0.035 2.3575 -0.695 2.0275 -1.375 1.6875 C-1.705 3.3375 -2.035 4.9875 -2.375 6.6875 C-5.015 6.6875 -7.655 6.6875 -10.375 6.6875 C-11.035 5.0375 -11.695 3.3875 -12.375 1.6875 C-13.365 2.1825 -13.365 2.1825 -14.375 2.6875 C-14.375 3.6775 -14.375 4.6675 -14.375 5.6875 C-15.695 5.3575 -17.015 5.0275 -18.375 4.6875 C-18.375 4.0275 -18.375 3.3675 -18.375 2.6875 C-12.00089887 -1.56190075 -7.48864201 -2.91224967 0 0 Z " fill="#2E2E2E" transform="translate(149.375,113.3125)"/>
<path d="M0 0 C-0.33 0.99 -0.66 1.98 -1 3 C-2.2375 3.061875 -3.475 3.12375 -4.75 3.1875 C-14.21672326 4.27408931 -22.1092611 8.50410889 -29.2578125 14.64453125 C-31 16 -31 16 -33 16 C-33 16.66 -33 17.32 -33 18 C-32.34 18.33 -31.68 18.66 -31 19 C-31.66 19 -32.32 19 -33 19 C-33.33 19.66 -33.66 20.32 -34 21 C-34.66 21 -35.32 21 -36 21 C-37.37310707 22.29233607 -38.71034824 23.62437146 -40 25 C-40.66 24.67 -41.32 24.34 -42 24 C-31.78645015 11.7388061 -16.9960432 -0.82907528 0 0 Z " fill="#0D0D0D" transform="translate(107,9)"/>
<path d="M0 0 C2.62451617 2.62451617 2.5832868 4.4877828 3.125 8.125 C3.29257813 9.22070312 3.46015625 10.31640625 3.6328125 11.4453125 C3.75398437 12.28835937 3.87515625 13.13140625 4 14 C3.01 14.33 2.02 14.66 1 15 C0.34 14.01 -0.32 13.02 -1 12 C-1.66 12 -2.32 12 -3 12 C-3.33 13.32 -3.66 14.64 -4 16 C-4.12375 15.030625 -4.2475 14.06125 -4.375 13.0625 C-4.58125 12.051875 -4.7875 11.04125 -5 10 C-5.66 9.67 -6.32 9.34 -7 9 C-7 7.02 -7 5.04 -7 3 C-5.5459375 2.5359375 -5.5459375 2.5359375 -4.0625 2.0625 C-1.15934208 1.30476658 -1.15934208 1.30476658 0 0 Z " fill="#242525" transform="translate(146,168)"/>
<path d="M0 0 C1.36733028 0.95298777 2.70264493 1.95374591 4 3 C4.66 3 5.32 3 6 3 C6.33 2.34 6.66 1.68 7 1 C7 4 7 4 4.625 6.875 C0.80266249 11.88843419 0.61456301 17.90023279 0 24 C-3.82186746 16.93109881 -3.12950627 8.82793435 -3 1 C-2.01 0.67 -1.02 0.34 0 0 Z " fill="#1C1C1C" transform="translate(177,106)"/>
<path d="M0 0 C4.27937006 0.47548556 6.06417851 3.06417851 9 6 C15.90134513 9.4624496 24.62807687 8.63820514 32 7 C31.67 7.66 31.34 8.32 31 9 C27.37762495 10.20745835 24.0229405 10.22246029 20.25 10.25 C19.5590625 10.270625 18.868125 10.29125 18.15625 10.3125 C13.02170148 10.35110563 9.61054141 9.24849064 5 7 C4.01 6.67 3.02 6.34 2 6 C-0.52588702 8.36292656 -1.88820837 9.66462511 -3 13 C-4.4783226 10.04335481 -4.06032783 7.25770263 -4 4 C-3.01 3.67 -2.02 3.34 -1 3 C-0.67 2.01 -0.34 1.02 0 0 Z " fill="#C1C0C0" transform="translate(98,174)"/>
<path d="M0 0 C2.64 0.33 5.28 0.66 8 1 C8 1.66 8 2.32 8 3 C6.56720703 3.09474609 6.56720703 3.09474609 5.10546875 3.19140625 C-7.27479893 4.36401386 -15.56382765 8.65180902 -24 18 C-24.66 17.67 -25.32 17.34 -26 17 C-23.69 14.69 -21.38 12.38 -19 10 C-20.32 10.33 -21.64 10.66 -23 11 C-18.33112618 5.78512423 -11.61315028 2.62381498 -4.66015625 1.68359375 C-2.75 1.6875 -2.75 1.6875 0 2 C0 1.34 0 0.68 0 0 Z " fill="#4B4B4B" transform="translate(108,57)"/>
<path d="M0 0 C0.66 0 1.32 0 2 0 C2.54527344 1.17755859 2.54527344 1.17755859 3.1015625 2.37890625 C7.73608439 12.70268336 7.73608439 12.70268336 16 20 C16 20.66 16 21.32 16 22 C16.78375 22.103125 17.5675 22.20625 18.375 22.3125 C21 23 21 23 23 26 C25.37948379 26.9404841 25.37948379 26.9404841 28.0625 27.5625 C30.78515625 28.25390625 30.78515625 28.25390625 33 29 C33.495 29.99 33.495 29.99 34 31 C25.16795462 30.83335763 18.85565595 26.61392203 12.5078125 20.6640625 C0 7.31397306 0 7.31397306 0 0 Z " fill="#0A0A0A" transform="translate(76,197)"/>
<path d="M0 0 C10.55808656 0.41002278 10.55808656 0.41002278 15 5 C14.67 5.66 14.34 6.32 14 7 C13.01 7 12.02 7 11 7 C10.67 6.01 10.34 5.02 10 4 C9.34 3.67 8.68 3.34 8 3 C7.67 4.65 7.34 6.3 7 8 C4.36 8 1.72 8 -1 8 C-1.33 6.35 -1.66 4.7 -2 3 C0.475 3.495 0.475 3.495 3 4 C3 3.34 3 2.68 3 2 C2.01 2 1.02 2 0 2 C0 1.34 0 0.68 0 0 Z " fill="#171717" transform="translate(91,112)"/>
<path d="M0 0 C0 0.33 0 0.66 0 1 C-1.98 1 -3.96 1 -6 1 C-6 1.66 -6 2.32 -6 3 C-5.113125 3.226875 -4.22625 3.45375 -3.3125 3.6875 C0.48329629 5.19149475 2.4074621 6.87370429 5 10 C5 10.99 5 11.98 5 13 C1.28490737 11.76163579 -0.28882864 9.77895064 -3 7 C-6.63195496 4.57869669 -8.38349348 4.78977215 -12.6875 4.875 C-13.86699219 4.89304687 -15.04648438 4.91109375 -16.26171875 4.9296875 C-17.61716797 4.96449219 -17.61716797 4.96449219 -19 5 C-19.33 4.01 -19.66 3.02 -20 2 C-13.2168636 0.57997892 -6.93302093 -0.22731216 0 0 Z " fill="#A6A6A6" transform="translate(152,107)"/>
<path d="M0 0 C1.60294922 0.15275391 1.60294922 0.15275391 3.23828125 0.30859375 C4.45064453 0.43427734 4.45064453 0.43427734 5.6875 0.5625 C5.730221 2.22861905 5.72813832 3.89632885 5.6875 5.5625 C5.3575 5.8925 5.0275 6.2225 4.6875 6.5625 C2.34795145 6.27602467 0.01537927 5.93200465 -2.3125 5.5625 C-3.79093617 5.36932454 -5.27010903 5.1816948 -6.75 5 C-7.925625 4.855625 -9.10125 4.71125 -10.3125 4.5625 C-9.9825 3.9025 -9.6525 3.2425 -9.3125 2.5625 C-9.9725 1.9025 -10.6325 1.2425 -11.3125 0.5625 C-7.36602382 -0.42594951 -4.03857036 -0.39941905 0 0 Z " fill="#292929" transform="translate(102.3125,103.4375)"/>
<path d="M0 0 C-0.125 3.25 -0.125 3.25 -1 7 C-5.05354098 10.66748946 -8.61929453 11.56954356 -14 12 C-13.34 10.68 -12.68 9.36 -12 8 C-10 8 -8 8 -6 8 C-6 7.01 -6 6.02 -6 5 C-6.99 5.495 -6.99 5.495 -8 6 C-8 5.01 -8 4.02 -8 3 C-10.64 3 -13.28 3 -16 3 C-16 2.67 -16 2.34 -16 2 C-15.24074219 1.93941406 -14.48148437 1.87882813 -13.69921875 1.81640625 C-12.70535156 1.73261719 -11.71148437 1.64882812 -10.6875 1.5625 C-9.70136719 1.48128906 -8.71523437 1.40007812 -7.69921875 1.31640625 C-5.01023135 1.00119933 -2.69190636 0 0 0 Z " fill="#3E3B36" transform="translate(130,184)"/>
<path d="M0 0 C2.87109375 1.5234375 2.87109375 1.5234375 5 3 C1.90522086 3 -1.10446346 2.76520744 -4.1875 2.5 C-5.27417969 2.4071875 -6.36085938 2.314375 -7.48046875 2.21875 C-8.31191406 2.1465625 -9.14335938 2.074375 -10 2 C-10 2.66 -10 3.32 -10 4 C-9.01 4 -8.02 4 -7 4 C-7 4.66 -7 5.32 -7 6 C-7.886875 5.7525 -8.77375 5.505 -9.6875 5.25 C-13.1170551 4.64710348 -13.1170551 4.64710348 -15.875 6.9375 C-16.57625 7.618125 -17.2775 8.29875 -18 9 C-18.66 8.67 -19.32 8.34 -20 8 C-19.34 7.34 -18.68 6.68 -18 6 C-18 5.01 -18 4.02 -18 3 C-12.45016984 -0.69988677 -6.5303727 -0.896498 0 0 Z " fill="#8E8E8E" transform="translate(101,110)"/>
<path d="M0 0 C0.598125 0.495 1.19625 0.99 1.8125 1.5 C3.97029994 3.28276418 3.97029994 3.28276418 7 3 C11.56558135 7.3725095 13.73946085 11.74706041 14 18 C11.04070881 15.24479785 8.96318174 12.53372712 7 9 C4.83333333 9.83333333 4.83333333 9.83333333 4 12 C2.35 10.02 0.7 8.04 -1 6 C-0.67 5.34 -0.34 4.68 0 4 C0.99 4.99 1.98 5.98 3 7 C2.690625 6.401875 2.38125 5.80375 2.0625 5.1875 C1 3 1 3 0 0 Z " fill="#9E9E9E" transform="translate(170,81)"/>
<path d="M0 0 C0.66 0 1.32 0 2 0 C4.28120737 7.04730133 5.31860277 13.7502784 5.375 21.125 C5.38853516 21.87128662 5.40207031 22.61757324 5.41601562 23.38647461 C5.3984375 25.5078125 5.3984375 25.5078125 5 29 C2 31 2 31 -1 31 C-0.71125 30.46375 -0.4225 29.9275 -0.125 29.375 C1.17678874 26.62677932 2.17289182 23.92669049 3 21 C2.15811388 19.05270463 2.15811388 19.05270463 1 18 C0.95936168 16.33382885 0.957279 14.66611905 1 13 C1.66 13 2.32 13 3 13 C2.01 8.71 1.02 4.42 0 0 Z " fill="#747474" transform="translate(186,121)"/>
<path d="M0 0 C0.80566406 0.00322266 1.61132812 0.00644531 2.44140625 0.00976562 C3.70404297 0.02233398 3.70404297 0.02233398 4.9921875 0.03515625 C5.84167969 0.03966797 6.69117187 0.04417969 7.56640625 0.04882812 C9.66669659 0.06062751 11.7669508 0.07856319 13.8671875 0.09765625 C13.8671875 0.75765625 13.8671875 1.41765625 13.8671875 2.09765625 C13.238125 2.20722656 12.6090625 2.31679688 11.9609375 2.4296875 C6.30095068 3.47814891 1.1976989 4.92596642 -4.1328125 7.09765625 C-4.1328125 6.10765625 -4.1328125 5.11765625 -4.1328125 4.09765625 C-4.7928125 3.76765625 -5.4528125 3.43765625 -6.1328125 3.09765625 C-6.1328125 2.43765625 -6.1328125 1.77765625 -6.1328125 1.09765625 C-3.8362755 -0.05061225 -2.54968083 -0.0179555 0 0 Z " fill="#DCDCDC" transform="translate(94.1328125,56.90234375)"/>
<path d="M0 0 C0.66 0.33 1.32 0.66 2 1 C-7.96007736 10.43028601 -17.21179432 14.17972954 -30.93359375 14.265625 C-33 14 -33 14 -35 12 C-34.09636719 11.93941406 -33.19273438 11.87882813 -32.26171875 11.81640625 C-31.08222656 11.73261719 -29.90273437 11.64882812 -28.6875 11.5625 C-26.92986328 11.44068359 -26.92986328 11.44068359 -25.13671875 11.31640625 C-21.97409042 11.1132629 -21.97409042 11.1132629 -19 10 C-17.60007813 9.82791016 -17.60007813 9.82791016 -16.171875 9.65234375 C-12.55480746 8.90843946 -10.31506404 7.59882017 -7.25 5.5625 C-6.30640625 4.94503906 -5.3628125 4.32757813 -4.390625 3.69140625 C-1.96029776 2.07285304 -1.96029776 2.07285304 0 0 Z " fill="#090909" transform="translate(146,216)"/>
<path d="M0 0 C0.99 0 1.98 0 3 0 C3.66 0.66 4.32 1.32 5 2 C5.66 1.34 6.32 0.68 7 0 C9.125 0.375 9.125 0.375 11 1 C10.88655624 3.1464753 10.75893655 5.29220592 10.625 7.4375 C10.55539063 8.63246094 10.48578125 9.82742187 10.4140625 11.05859375 C10.27742187 12.02925781 10.14078125 12.99992187 10 14 C9.01 14.495 9.01 14.495 8 15 C7.79375 14.195625 7.5875 13.39125 7.375 12.5625 C5.57139638 7.889527 2.87884691 4.07383996 0 0 Z " fill="#252525" transform="translate(175,82)"/>
<path d="M0 0 C0.33 0.66 0.66 1.32 1 2 C1.99 2.33 2.98 2.66 4 3 C4 5.64 4 8.28 4 11 C3.01 10.67 2.02 10.34 1 10 C1 9.34 1 8.68 1 8 C0.34 8 -0.32 8 -1 8 C-1.33 8.66 -1.66 9.32 -2 10 C-3.65 8.68 -5.3 7.36 -7 6 C-4.69 4.02 -2.38 2.04 0 0 Z " fill="#E4E5E4" transform="translate(138,175)"/>
<path d="M0 0 C2.64025391 2.48834889 3.8685894 4.51873661 5 8 C5 8.99 5 9.98 5 11 C4.34 11 3.68 11 3 11 C3 11.66 3 12.32 3 13 C1.02 13.99 -0.96 14.98 -3 16 C-2.30834212 10.58201328 -1.24200752 5.3177215 0 0 Z " fill="#E2E2E2" transform="translate(50,120)"/>
<path d="M0 0 C2.26956959 3.40435438 3.07678426 5.04019672 2.75 9.125 C3.04409934 13.68353983 4.46000003 16.15703708 6.80859375 19.984375 C8 22 8 22 9 25 C9.66 25 10.32 25 11 25 C15 31.625 15 31.625 15 35 C-0.18806974 15.98592796 -0.18806974 15.98592796 -0.0625 5.3125 C-0.05347656 4.31863281 -0.04445312 3.32476562 -0.03515625 2.30078125 C-0.02355469 1.54152344 -0.01195312 0.78226563 0 0 Z " fill="#070707" transform="translate(60,162)"/>
<path d="M0 0 C2.24911032 4.49822064 2.24911032 4.49822064 2.125 8.125 C2.06184651 10.08275821 2 12.04122345 2 14 C4.31 12.02 6.62 10.04 9 8 C7.75916114 12.96335543 6.10227402 14.08107426 2 17 C0.35 17.33 -1.3 17.66 -3 18 C-2.01 12.06 -1.02 6.12 0 0 Z " fill="#666666" transform="translate(179,131)"/>
<path d="M0 0 C2.0625 0.4375 2.0625 0.4375 4 1 C2.45454854 6.47932789 -0.15543212 11.11429181 -3 16 C-3.33 16 -3.66 16 -4 16 C-4.33 12.7 -4.66 9.4 -5 6 C-3.35 5.67 -1.7 5.34 0 5 C-0.2784375 4.0409375 -0.2784375 4.0409375 -0.5625 3.0625 C-0.706875 2.381875 -0.85125 1.70125 -1 1 C-0.67 0.67 -0.34 0.34 0 0 Z " fill="#DADADA" transform="translate(182,114)"/>
<path d="M0 0 C1.65 1.32 3.3 2.64 5 4 C5.33 3.34 5.66 2.68 6 2 C9 3 9 3 10.25 4.875 C11 7 11 7 10 10 C10.38932856 12.14255793 10.38932856 12.14255793 11 14 C8.9754262 12.06745228 7.57894208 10.36841312 6 8 C4.35 8.33 2.7 8.66 1 9 C0.67 6.03 0.34 3.06 0 0 Z " fill="#383838" transform="translate(169,87)"/>
<path d="M0 0 C3.95704396 5.93556595 3.09386701 13.80437846 3.125 20.75 C3.12967285 21.48299316 3.1343457 22.21598633 3.13916016 22.97119141 C3.12787568 26.77232517 2.91636136 30.30546372 2 34 C1.34 34 0.68 34 0 34 C0.05329468 33.08504761 0.05329468 33.08504761 0.10766602 32.15161133 C0.26584611 29.37223654 0.41426189 26.59242204 0.5625 23.8125 C0.61857422 22.85279297 0.67464844 21.89308594 0.73242188 20.90429688 C0.78076172 19.97294922 0.82910156 19.04160156 0.87890625 18.08203125 C0.9260376 17.22843018 0.97316895 16.3748291 1.02172852 15.49536133 C0.99888615 12.87208272 0.56535882 10.55593779 0 8 C-0.11678799 5.32321927 -0.0454506 2.68158543 0 0 Z " fill="#070707" transform="translate(184,70)"/>
<path d="M0 0 C2.96909598 3.27301919 3.34354794 5.38065762 3.1875 9.75 C3.14689453 11.22726563 3.14689453 11.22726563 3.10546875 12.734375 C3.07066406 13.48203125 3.03585938 14.2296875 3 15 C2.34 15 1.68 15 1 15 C0.15930585 13.39967863 -0.67231505 11.79458829 -1.5 10.1875 C-2.19609375 8.84751953 -2.19609375 8.84751953 -2.90625 7.48046875 C-4 5 -4 5 -4 2 C-2.68 1.34 -1.36 0.68 0 0 Z " fill="#D5D5D5" transform="translate(56,115)"/>
<path d="M0 0 C0.33 0 0.66 0 1 0 C1 6.27 1 12.54 1 19 C0.34 18.01 -0.32 17.02 -1 16 C-1.763125 16.763125 -2.52625 17.52625 -3.3125 18.3125 C-5.20833333 20.20833333 -7.10416667 22.10416667 -9 24 C-8.34 22.02 -7.68 20.04 -7 18 C-7.66 17.67 -8.32 17.34 -9 17 C-6.38485683 14.87961365 -3.80362384 12.86908256 -1 11 C-0.41651248 8.3443272 -0.41651248 8.3443272 -0.3125 5.375 C-0.24675781 4.37210937 -0.18101563 3.36921875 -0.11328125 2.3359375 C-0.07589844 1.56507812 -0.03851563 0.79421875 0 0 Z " fill="#5B5B5B" transform="translate(67,74)"/>
<path d="M0 0 C0.99 0 1.98 0 3 0 C3.95376567 3.20782086 4.11621181 6.08187396 4.09765625 9.421875 C4.09443359 10.44667969 4.09121094 11.47148437 4.08789062 12.52734375 C4.07951172 13.59082031 4.07113281 14.65429688 4.0625 15.75 C4.05798828 16.82894531 4.05347656 17.90789062 4.04882812 19.01953125 C4.03705727 21.67974383 4.02061399 24.33984365 4 27 C3.67 27 3.34 27 3 27 C1.83834968 18.0113077 0.72752816 9.03666554 0 0 Z " fill="#DCDCDC" transform="translate(188,118)"/>
<path d="M0 0 C0.33 0 0.66 0 1 0 C1.45283019 19.09433962 1.45283019 19.09433962 -2 26 C-2.66 26 -3.32 26 -4 26 C-3.86722656 25.35675781 -3.73445312 24.71351563 -3.59765625 24.05078125 C-2.33372391 17.58350703 -1.62935814 11.23041219 -1.24609375 4.65234375 C-1 2 -1 2 0 0 Z " fill="#020202" transform="translate(194,127)"/>
<path d="M0 0 C1.16144531 0.11085937 2.32289062 0.22171875 3.51953125 0.3359375 C4.39996094 0.43132812 5.28039062 0.52671875 6.1875 0.625 C6.1875 1.285 6.1875 1.945 6.1875 2.625 C-2.7225 3.615 -2.7225 3.615 -11.8125 4.625 C-11.8125 3.635 -11.8125 2.645 -11.8125 1.625 C-7.6285335 -0.43940531 -4.60614129 -0.4652668 0 0 Z " fill="#D9D9D9" transform="translate(108.8125,169.375)"/>
<path d="M0 0 C1.51171875 1.23828125 1.51171875 1.23828125 3 3 C3.14453125 4.98046875 3.14453125 4.98046875 2.8125 7.1875 C2.69648437 7.97382812 2.58046875 8.76015625 2.4609375 9.5703125 C1.79176949 13.09762183 0.94471225 16.53605508 0 20 C-0.33 20 -0.66 20 -1 20 C-1.02689449 17.04160645 -1.04678741 14.08345573 -1.0625 11.125 C-1.07087891 10.28324219 -1.07925781 9.44148438 -1.08789062 8.57421875 C-1.09111328 7.76855469 -1.09433594 6.96289062 -1.09765625 6.1328125 C-1.10289307 5.38918457 -1.10812988 4.64555664 -1.11352539 3.87939453 C-1 2 -1 2 0 0 Z " fill="#E2E2E2" transform="translate(46,114)"/>
<path d="M0 0 C0.33 0 0.66 0 1 0 C1.25 2.8125 1.25 2.8125 1 6 C-1 7.875 -1 7.875 -3 9 C-3.54140625 8.68289062 -4.0828125 8.36578125 -4.640625 8.0390625 C-7.4157149 6.81692026 -9.73208098 6.59056564 -12.75 6.375 C-13.73484375 6.30023438 -14.7196875 6.22546875 -15.734375 6.1484375 C-16.48203125 6.09945312 -17.2296875 6.05046875 -18 6 C-18 5.34 -18 4.68 -18 4 C-20.31 4 -22.62 4 -25 4 C-25 3.67 -25 3.34 -25 3 C-19.15776259 2.81154073 -14.05035023 3.223447 -8.359375 4.5625 C-5.85727004 5.02646648 -3.53899405 5.0720282 -1 5 C-0.67 3.35 -0.34 1.7 0 0 Z " fill="#CECECE" transform="translate(108,104)"/>
<path d="M0 0 C2.77109307 -0.05392397 5.54113818 -0.09363455 8.3125 -0.125 C9.09818359 -0.14175781 9.88386719 -0.15851563 10.69335938 -0.17578125 C11.45068359 -0.18222656 12.20800781 -0.18867188 12.98828125 -0.1953125 C13.68477783 -0.20578613 14.38127441 -0.21625977 15.09887695 -0.22705078 C17 0 17 0 20 2 C19.67 2.66 19.34 3.32 19 4 C12.4 3.34 5.8 2.68 -1 2 C-0.67 1.34 -0.34 0.68 0 0 Z " fill="#E5E5E5" transform="translate(120,170)"/>
<path d="M0 0 C1.65 0 3.3 0 5 0 C4.67 3.96 4.34 7.92 4 12 C3.01 12 2.02 12 1 12 C0.67 12.99 0.34 13.98 0 15 C0.165 14.236875 0.33 13.47375 0.5 12.6875 C1.33763432 8.18521551 0.5148721 5.26057777 -1 1 C-0.67 0.67 -0.34 0.34 0 0 Z " fill="#D3D3D3" transform="translate(187,106)"/>
<path d="M0 0 C2.31 0.33 4.62 0.66 7 1 C6.67 1.99 6.34 2.98 6 4 C5.67 5.32 5.34 6.64 5 8 C0.545 7.01 0.545 7.01 -4 6 C-3.01 5.01 -2.02 4.02 -1 3 C-0.67 2.01 -0.34 1.02 0 0 Z " fill="#2A2A2A" transform="translate(146,19)"/>
<path d="M0 0 C0.598125 0.226875 1.19625 0.45375 1.8125 0.6875 C1.8125 1.6775 1.8125 2.6675 1.8125 3.6875 C0.8225 4.1825 0.8225 4.1825 -0.1875 4.6875 C0.4725 5.3475 1.1325 6.0075 1.8125 6.6875 C0.4925 6.6875 -0.8275 6.6875 -2.1875 6.6875 C-2.5175 7.3475 -2.8475 8.0075 -3.1875 8.6875 C-4.5075 8.0275 -5.8275 7.3675 -7.1875 6.6875 C-3.9375 -0.5625 -3.9375 -0.5625 0 0 Z " fill="#C0C0C0" transform="translate(106.1875,144.3125)"/>
<path d="M0 0 C0.33 0.99 0.66 1.98 1 3 C0.09507813 3.87011719 0.09507813 3.87011719 -0.828125 4.7578125 C-5.09954668 8.93278273 -8.96004212 12.8452888 -12 18 C-13 16 -13 16 -12.25 13.6875 C-10.97509726 10.94645912 -9.77237623 8.4540594 -8 6 C-6.66923011 5.65657551 -5.33568021 5.32380126 -4 5 C-1.75149517 2.52338502 -1.75149517 2.52338502 0 0 Z " fill="#D1D1D1" transform="translate(65,81)"/>
<path d="M0 0 C-0.66 0.66 -1.32 1.32 -2 2 C-1.34 2.66 -0.68 3.32 0 4 C-4.62197306 6.21854707 -7.76824163 7.38281159 -13 7 C-5.875 -0.31756757 -5.875 -0.31756757 0 0 Z " fill="#E8E7E6" transform="translate(131,176)"/>
<path d="M0 0 C0.33 0 0.66 0 1 0 C0.85923685 1.9587043 0.7122324 3.91696093 0.5625 5.875 C0.48128906 6.96554688 0.40007812 8.05609375 0.31640625 9.1796875 C0 12 0 12 -1 14 C-3.5625 14.625 -3.5625 14.625 -6 15 C-4.40109514 9.80355921 -2.25861997 4.93387858 0 0 Z " fill="#222222" transform="translate(176,142)"/>
<path d="M0 0 C0.66 0 1.32 0 2 0 C2.33 6.93 2.66 13.86 3 21 C-0.43008332 17.56991668 -0.50230608 12.69344268 -1 8 C-0.8917127 5.22351369 -0.51701969 2.74020437 0 0 Z " fill="#0D0D0D" transform="translate(182,48)"/>
<path d="M0 0 C0.99 0 1.98 0 3 0 C3.33 2.64 3.66 5.28 4 8 C3.01 8.33 2.02 8.66 1 9 C-0.82421875 7.78515625 -0.82421875 7.78515625 -2.6875 6.0625 C-3.31011719 5.49660156 -3.93273438 4.93070313 -4.57421875 4.34765625 C-5.04472656 3.90292969 -5.51523437 3.45820313 -6 3 C-4.125 1.9375 -4.125 1.9375 -2 1 C-1.34 1.33 -0.68 1.66 0 2 C0 1.34 0 0.68 0 0 Z " fill="#C0C0C0" transform="translate(55,137)"/>
<path d="M0 0 C2.31 0 4.62 0 7 0 C6.34 0.66 5.68 1.32 5 2 C7.31 2 9.62 2 12 2 C11.67 2.66 11.34 3.32 11 4 C8.11788698 4.96070434 6.30149956 5.10581883 3.3125 5.0625 C2.10013672 5.04896484 2.10013672 5.04896484 0.86328125 5.03515625 C-0.05904297 5.01775391 -0.05904297 5.01775391 -1 5 C-1 2 -1 2 0 0 Z " fill="#D7D7D7" transform="translate(88,122)"/>
<path d="M0 0 C1.98 0 3.96 0 6 0 C6 0.66 6 1.32 6 2 C6.66 2 7.32 2 8 2 C8 2.66 8 3.32 8 4 C7 5 6 6 5 7 C4.67 7.99 4.34 8.98 4 10 C1.16625119 6.79663178 0.4794463 4.21912747 0 0 Z " fill="#DCDCDB" transform="translate(95,183)"/>
<path d="M0 0 C2.14418558 3.21627837 2.67582137 5.19090105 3 9 C2.34 9.66 1.68 10.32 1 11 C0.01 10.67 -0.98 10.34 -2 10 C-1.67 9.34 -1.34 8.68 -1 8 C-1.99 8.33 -2.98 8.66 -4 9 C-2.94124926 5.59687262 -1.99097846 2.98646769 0 0 Z " fill="#E0E0E0" transform="translate(185,120)"/>
<path d="M0 0 C0.33 0 0.66 0 1 0 C2.31956005 5.01432818 1.58334407 8.8140188 0.375 13.73046875 C-0.20715676 16.15628574 -0.20715676 16.15628574 1 19 C0.01 18.67 -0.98 18.34 -2 18 C-2.20852314 11.59370576 -2.1583195 6.07027358 0 0 Z " fill="#0F0F0F" transform="translate(51,79)"/>
<path d="M0 0 C-2.65654657 3.73884332 -4.58110387 5.64978174 -9 7 C-10.0625 5.125 -10.0625 5.125 -11 3 C-10.67 2.34 -10.34 1.68 -10 1 C-6.6322481 0.06451336 -3.4815554 -0.09947301 0 0 Z " fill="#CECDCE" transform="translate(139,174)"/>
<path d="M0 0 C0 0.66 0 1.32 0 2 C-1.8253125 2.37125 -1.8253125 2.37125 -3.6875 2.75 C-7.63596406 3.70403805 -9.84101571 5.45526265 -13 8 C-15.1875 8 -15.1875 8 -17 7 C-18.25 4.9375 -18.25 4.9375 -19 3 C-17.80375 3.2475 -16.6075 3.495 -15.375 3.75 C-9.09064929 4.58126332 -6.30277217 -0.74150261 0 0 Z " fill="#6D6D6D" transform="translate(132,151)"/>
<path d="M0 0 C3.26554585 3.26554585 2.75079797 7.32138441 3.046875 11.77734375 C2.98837005 15.79955892 2.30435743 17.7738996 0 21 C-0.66 20.34 -1.32 19.68 -2 19 C-1.7578125 17.1875 -1.7578125 17.1875 -1.125 15 C0.15742619 9.94428138 0.19495497 5.1879684 0 0 Z " fill="#434343" transform="translate(165,39)"/>
<path d="M0 0 C3 1 3 1 4 3 C4.66 3 5.32 3 6 3 C6 3.66 6 4.32 6 5 C5.01 5.495 5.01 5.495 4 6 C3.67 6.66 3.34 7.32 3 8 C2.34 7.67 1.68 7.34 1 7 C-0.87056791 6.7724985 -2.74685958 6.59037189 -4.625 6.4375 C-6.12933594 6.31181641 -6.12933594 6.31181641 -7.6640625 6.18359375 C-8.43492188 6.12300781 -9.20578125 6.06242187 -10 6 C-9.67 5.34 -9.34 4.68 -9 4 C-6.36 4 -3.72 4 -1 4 C-0.67 2.68 -0.34 1.36 0 0 Z " fill="#BEBEBE" transform="translate(99,115)"/>
<path d="M0 0 C0.66 0.33 1.32 0.66 2 1 C2 1.66 2 2.32 2 3 C2.66 3 3.32 3 4 3 C3.67 4.32 3.34 5.64 3 7 C3.66 7.33 4.32 7.66 5 8 C-0.75 7.125 -0.75 7.125 -3 6 C-3 4.35 -3 2.7 -3 1 C-2.01 0.67 -1.02 0.34 0 0 Z " fill="#171717" transform="translate(73,38)"/>
<path d="M0 0 C0.99 0.33 1.98 0.66 3 1 C2.01 1.495 2.01 1.495 1 2 C0.34444881 4.52733235 0.34444881 4.52733235 0 7 C0.99 7 1.98 7 3 7 C3.33 6.34 3.66 5.68 4 5 C4.12375 5.639375 4.2475 6.27875 4.375 6.9375 C4.684375 7.9584375 4.684375 7.9584375 5 9 C5.66 9.33 6.32 9.66 7 10 C6 11 6 11 3.5625 11.25 C2.716875 11.1675 1.87125 11.085 1 11 C-1.43769218 7.34346173 -1.23944439 5.30999899 -1 1 C-0.67 0.67 -0.34 0.34 0 0 Z " fill="#D4D4D4" transform="translate(177,148)"/>
<path d="M0 0 C0.33 1.65 0.66 3.3 1 5 C3.31 5.33 5.62 5.66 8 6 C8 6.33 8 6.66 8 7 C2.26157749 7.20413361 -2.60539047 7.27141454 -8 5 C-7.67 4.34 -7.34 3.68 -7 3 C-6.01 3.33 -5.02 3.66 -4 4 C-3.67 3.01 -3.34 2.02 -3 1 C-1 0 -1 0 0 0 Z " fill="#AEAEAE" transform="translate(138,114)"/>
<path d="M0 0 C0.125 3.375 0.125 3.375 0 7 C-0.66 7.66 -1.32 8.32 -2 9 C-3.32 9 -4.64 9 -6 9 C-6.33 8.01 -6.66 7.02 -7 6 C-6.01 6 -5.02 6 -4 6 C-3.87625 5.195625 -3.7525 4.39125 -3.625 3.5625 C-3.41875 2.716875 -3.2125 1.87125 -3 1 C-1 0 -1 0 0 0 Z " fill="#D4D4D4" transform="translate(89,114)"/>
<path d="M0 0 C0.66 0.66 1.32 1.32 2 2 C4.20250992 2.46006346 4.20250992 2.46006346 6.625 2.625 C7.44226563 2.69976563 8.25953125 2.77453125 9.1015625 2.8515625 C9.72804688 2.90054687 10.35453125 2.94953125 11 3 C11 3.33 11 3.66 11 4 C8.56421213 4.53030068 6.12694025 5.04952312 3.6875 5.5625 C2.99720703 5.71396484 2.30691406 5.86542969 1.59570312 6.02148438 C-1.75544066 6.71761569 -3.69534072 7.10155309 -7 6 C-5.35 5.34 -3.7 4.68 -2 4 C-2.33 3.01 -2.66 2.02 -3 1 C-2.01 0.67 -1.02 0.34 0 0 Z " fill="#5C5C5C" transform="translate(95,18)"/>
<path d="M0 0 C0.67095703 0.63228516 0.67095703 0.63228516 1.35546875 1.27734375 C5.98399766 5.5377979 5.98399766 5.5377979 12 7 C12 7.99 12 8.98 12 10 C9.9375 10.4375 9.9375 10.4375 7 10 C4.33680918 7.95308474 2.00479648 5.69809785 0 3 C0 2.01 0 1.02 0 0 Z " fill="#383838" transform="translate(48,138)"/>
<path d="M0 0 C0.99 0.33 1.98 0.66 3 1 C3 2.65 3 4.3 3 6 C2.34 6 1.68 6 1 6 C1 6.66 1 7.32 1 8 C-0.98 8.99 -2.96 9.98 -5 11 C-4.67 9.68 -4.34 8.36 -4 7 C-3.34 7.33 -2.68 7.66 -2 8 C-2 7.01 -2 6.02 -2 5 C-1.34 5 -0.68 5 0 5 C-0.2784375 4.0409375 -0.2784375 4.0409375 -0.5625 3.0625 C-0.706875 2.381875 -0.85125 1.70125 -1 1 C-0.67 0.67 -0.34 0.34 0 0 Z " fill="#DBDBDB" transform="translate(52,125)"/>
<path d="M0 0 C1.95803507 -0.05389087 3.91648909 -0.09274217 5.875 -0.125 C7.51082031 -0.15980469 7.51082031 -0.15980469 9.1796875 -0.1953125 C12 0 12 0 14 2 C10.5980513 4.09350689 7.94727588 4.17942163 4 4 C4.33 3.34 4.66 2.68 5 2 C3.35 1.67 1.7 1.34 0 1 C0 0.67 0 0.34 0 0 Z " fill="#EBEBEB" transform="translate(88,121)"/>
<path d="M0 0 C0.66 0 1.32 0 2 0 C2 0.99 2 1.98 2 3 C2.66 2.34 3.32 1.68 4 1 C3.38461538 8.50769231 3.38461538 8.50769231 1.4375 11 C0.7259375 11.495 0.7259375 11.495 0 12 C0.33 9.69 0.66 7.38 1 5 C0.01 5 -0.98 5 -2 5 C-2 4.34 -2 3.68 -2 3 C-1.34 3 -0.68 3 0 3 C0 2.01 0 1.02 0 0 Z " fill="#171717" transform="translate(162,44)"/>
<path d="M0 0 C0.66 0.33 1.32 0.66 2 1 C0.25 5.875 0.25 5.875 -2 7 C-4.00800456 6.71887936 -6.01014051 6.38932033 -8 6 C-8 5.34 -8 4.68 -8 4 C-4.86650268 2.95550089 -4.01031744 3.06576355 -1 4 C-0.67 2.68 -0.34 1.36 0 0 Z M-10 3 C-9.34 4.32 -8.68 5.64 -8 7 C-8.99 6.67 -9.98 6.34 -11 6 C-10.67 5.01 -10.34 4.02 -10 3 Z " fill="#D8D8D6" transform="translate(139,185)"/>
<path d="M0 0 C-0.33 4.29 -0.66 8.58 -1 13 C-1.66 12.67 -2.32 12.34 -3 12 C-3.4140625 9.71484375 -3.4140625 9.71484375 -3.625 6.9375 C-3.69976562 6.01839844 -3.77453125 5.09929687 -3.8515625 4.15234375 C-3.90054688 3.44207031 -3.94953125 2.73179688 -4 2 C-1 0 -1 0 0 0 Z " fill="#212121" transform="translate(62,114)"/>
<path d="M0 0 C0.66 0.33 1.32 0.66 2 1 C1.34 2.98 0.68 4.96 0 7 C-0.99 7 -1.98 7 -3 7 C-3 7.66 -3 8.32 -3 9 C-3.99 9.33 -4.98 9.66 -6 10 C-6.66 9.34 -7.32 8.68 -8 8 C-7.34 7.54625 -6.68 7.0925 -6 6.625 C-5.34 6.08875 -4.68 5.5525 -4 5 C-4 4.34 -4 3.68 -4 3 C-2 1.375 -2 1.375 0 0 Z " fill="#1D1D1D" transform="translate(78,22)"/>
<path d="M0 0 C3.4375 0.25 3.4375 0.25 7 1 C7.66 1.99 8.32 2.98 9 4 C6.69 4.33 4.38 4.66 2 5 C1.01 3.68 0.02 2.36 -1 1 C-0.67 0.67 -0.34 0.34 0 0 Z " fill="#E2E2E2" transform="translate(106,153)"/>
<path d="M0 0 C0 0.33 0 0.66 0 1 C-1.98 1 -3.96 1 -6 1 C-6 1.66 -6 2.32 -6 3 C-9.63 3 -13.26 3 -17 3 C-16.67 2.34 -16.34 1.68 -16 1 C-10.66645094 -0.11115605 -5.43087408 -0.11083416 0 0 Z " fill="#C4C4C4" transform="translate(152,107)"/>
<path d="M0 0 C4.28806873 0.47645208 6.26647487 1.65902484 9 5 C9 5.66 9 6.32 9 7 C8.319375 6.71125 7.63875 6.4225 6.9375 6.125 C3.67106907 4.87402645 0.37153877 3.92552045 -3 3 C-2.01 2.67 -1.02 2.34 0 2 C0 1.34 0 0.68 0 0 Z " fill="#2F2F2F" transform="translate(155,105)"/>
<path d="M0 0 C1.65 0 3.3 0 5 0 C5.042721 1.66611905 5.04063832 3.33382885 5 5 C4 6 4 6 1.4375 6.0625 C0.2309375 6.0315625 0.2309375 6.0315625 -1 6 C-0.01 5.67 0.98 5.34 2 5 C1.01 4.34 0.02 3.68 -1 3 C-0.67 2.01 -0.34 1.02 0 0 Z " fill="#313131" transform="translate(103,104)"/>
<path d="M0 0 C0 0.66 0 1.32 0 2 C-1.609375 3.3671875 -1.609375 3.3671875 -3.75 4.875 C-6.76672537 7.05731197 -9.46483146 9.25356742 -12 12 C-12.66 11.67 -13.32 11.34 -14 11 C-11.66666667 8.66666667 -9.33333333 6.33333333 -7 4 C-6.47019531 3.44957031 -5.94039062 2.89914063 -5.39453125 2.33203125 C-3.58494025 0.60354236 -2.52163517 0 0 0 Z " fill="#6C6C6C" transform="translate(96,63)"/>
<path d="M0 0 C2.6015625 -0.29296875 2.6015625 -0.29296875 5.625 -0.1875 C7.12933594 -0.14689453 7.12933594 -0.14689453 8.6640625 -0.10546875 C9.43492188 -0.07066406 10.20578125 -0.03585938 11 0 C11 0.66 11 1.32 11 2 C4.565 2.495 4.565 2.495 -2 3 C-1.34 2.01 -0.68 1.02 0 0 Z " fill="#DADADA" transform="translate(97,57)"/>
<path d="M0 0 C0.66 0.66 1.32 1.32 2 2 C1.67 2.66 1.34 3.32 1 4 C0.01 4 -0.98 4 -2 4 C-2.33 4.66 -2.66 5.32 -3 6 C-3.99 6 -4.98 6 -6 6 C-7.33981486 6.3062434 -8.67511887 6.63451555 -10 7 C-5.375 2.125 -5.375 2.125 -2 1 C-1.34 1.33 -0.68 1.66 0 2 C0 1.34 0 0.68 0 0 Z " fill="#36322C" transform="translate(123,188)"/>
<path d="M0 0 C1.98 0 3.96 0 6 0 C6 0.99 6 1.98 6 3 C4.35 3 2.7 3 1 3 C1 4.65 1 6.3 1 8 C0.67 6.68 0.34 5.36 0 4 C-0.66 4 -1.32 4 -2 4 C-1.34 2.68 -0.68 1.36 0 0 Z " fill="#1A1A1A" transform="translate(44,103)"/>
<path d="M0 0 C0.66 0 1.32 0 2 0 C5 4.38461538 5 4.38461538 5 7 C3.68 7.33 2.36 7.66 1 8 C0.34 5.69 -0.32 3.38 -1 1 C-0.67 0.67 -0.34 0.34 0 0 Z " fill="#212121" transform="translate(145,43)"/>
<path d="M0 0 C0.33 0.99 0.66 1.98 1 3 C-0.09601169 4.00893131 -1.20213918 5.00688225 -2.3125 6 C-3.23482422 6.8353125 -3.23482422 6.8353125 -4.17578125 7.6875 C-6 9 -6 9 -9 9 C-8.67 7.02 -8.34 5.04 -8 3 C-7.67 4.32 -7.34 5.64 -7 7 C-4.69 4.69 -2.38 2.38 0 0 Z " fill="#242424" transform="translate(187,139)"/>
<path d="M0 0 C4.02792802 0.92066926 5.68463941 2.59367221 7.875 5.9375 C9.1796875 8.02734375 9.1796875 8.02734375 10 10 C9.67 10.99 9.34 11.98 9 13 C8.60167969 12.39671875 8.20335937 11.7934375 7.79296875 11.171875 C7.26316406 10.37265625 6.73335937 9.5734375 6.1875 8.75 C5.66542969 7.96109375 5.14335937 7.1721875 4.60546875 6.359375 C3.12865878 4.18907519 1.59310127 2.08586232 0 0 Z " fill="#070707" transform="translate(166,22)"/>
<path d="M0 0 C0.598125 0.20625 1.19625 0.4125 1.8125 0.625 C1.1525 1.945 0.4925 3.265 -0.1875 4.625 C-2.1675 4.625 -4.1475 4.625 -6.1875 4.625 C-5.03076352 1.15479057 -3.91311293 -0.67081936 0 0 Z " fill="#161616" transform="translate(144.1875,166.375)"/>
<path d="M0 0 C3.7952131 1.49097658 5.61042731 3.75700849 8 7 C7.01 7.33 6.02 7.66 5 8 C0 2.25 0 2.25 0 0 Z " fill="#6E6E6E" transform="translate(169,75)"/>
<path d="M0 0 C0.99 0.33 1.98 0.66 3 1 C2.01 2.485 2.01 2.485 1 4 C1 4.66 1 5.32 1 6 C0.34 6 -0.32 6 -1 6 C-1.66 7.32 -2.32 8.64 -3 10 C-3.93065133 7.39417629 -4.14917407 6.35801776 -3.0625 3.75 C-2.711875 3.1725 -2.36125 2.595 -2 2 C-1.34 2 -0.68 2 0 2 C0 1.34 0 0.68 0 0 Z " fill="#050505" transform="translate(75,29)"/>
<path d="M0 0 C0.33 0.66 0.66 1.32 1 2 C0.34 2.66 -0.32 3.32 -1 4 C-1 1 -1 1 0 0 Z M-5 2 C-4.01 2.33 -3.02 2.66 -2 3 C-2.66 3.66 -3.32 4.32 -4 5 C-4.16687448 7.58354218 -4.16687448 7.58354218 -4 10 C-4.99 9.67 -5.98 9.34 -7 9 C-7 7.02 -7 5.04 -7 3 C-6.34 2.67 -5.68 2.34 -5 2 Z " fill="#3B3B3B" transform="translate(146,168)"/>
<path d="M0 0 C0.99 0.33 1.98 0.66 3 1 C0.35039045 4.63094642 -2.01824456 6.89851796 -6 9 C-4.68775452 5.06326356 -3.08089673 2.77280706 0 0 Z " fill="#303030" transform="translate(78,104)"/>
<path d="M0 0 C0 1.32 0 2.64 0 4 C-2 6 -2 6 -4.625 6.125 C-5.40875 6.08375 -6.1925 6.0425 -7 6 C-4.84615385 0 -4.84615385 0 0 0 Z " fill="#202020" transform="translate(85,102)"/>
<path d="M0 0 C0.66 0.66 1.32 1.32 2 2 C1.38245741 3.31602523 0.75571258 4.62773556 0.125 5.9375 C-0.22304688 6.66839844 -0.57109375 7.39929688 -0.9296875 8.15234375 C-2 10 -2 10 -4 11 C-3.34 9.02 -2.68 7.04 -2 5 C-2.66 4.67 -3.32 4.34 -4 4 C-2.68 2.68 -1.36 1.36 0 0 Z " fill="#474747" transform="translate(62,87)"/>
<path d="M0 0 C0.75 1.625 0.75 1.625 1 4 C-0.9375 7.25 -0.9375 7.25 -3 10 C-3.66 9.67 -4.32 9.34 -5 9 C-3.90931332 5.22454612 -3.0916909 2.52956528 0 0 Z " fill="#6D6D6D" transform="translate(65,76)"/>
<path d="M0 0 C3 1 3 1 4.1328125 2.77734375 C4.46023437 3.49019531 4.78765625 4.20304687 5.125 4.9375 C5.45757812 5.64777344 5.79015625 6.35804687 6.1328125 7.08984375 C6.41898438 7.72019531 6.70515625 8.35054687 7 9 C7.33 9.66 7.66 10.32 8 11 C5.6875 10.5625 5.6875 10.5625 3 9 C1.63924116 6.09244107 0.78637041 3.10712212 0 0 Z " fill="#060505" transform="translate(175,29)"/>
<path d="M0 0 C1.9375 0.75 1.9375 0.75 4 2 C4.625 4 4.625 4 5 6 C5.66 6.66 6.32 7.32 7 8 C6.01 8.33 5.02 8.66 4 9 C1.47740939 7.02579865 1.0070192 6.03254358 0.3125 2.8125 C0.209375 1.884375 0.10625 0.95625 0 0 Z " fill="#34312D" transform="translate(106,184)"/>
<path d="M0 0 C2 2 2 2 2 6 C2.99 6.33 3.98 6.66 5 7 C3.125 7.625 3.125 7.625 1 8 C0.34 7.34 -0.32 6.68 -1 6 C-1 5.01 -1 4.02 -1 3 C-1.99 2.67 -2.98 2.34 -4 2 C-2.68 1.34 -1.36 0.68 0 0 Z " fill="#232323" transform="translate(95,164)"/>
<path d="M0 0 C3.93846154 3.32307692 3.93846154 3.32307692 4.25 6.75 C4.1675 7.4925 4.085 8.235 4 9 C3.01 9 2.02 9 1 9 C-0.4783226 6.04335481 -0.06032783 3.25770263 0 0 Z " fill="#DEDEDE" transform="translate(47,139)"/>
<path d="M0 0 C3.35595828 0.59927826 5.37801226 1.84622436 8 4 C7.67 4.66 7.34 5.32 7 6 C6.01 6 5.02 6 4 6 C3.67 5.01 3.34 4.02 3 3 C2.34 2.67 1.68 2.34 1 2 C0.67 3.32 0.34 4.64 0 6 C0 4.02 0 2.04 0 0 Z " fill="#424242" transform="translate(98,113)"/>
<path d="M0 0 C-1.62463842 0.05395478 -3.24978541 0.09277195 -4.875 0.125 C-5.77992187 0.14820313 -6.68484375 0.17140625 -7.6171875 0.1953125 C-10 0 -10 0 -12 -2 C-7.26382227 -3.57872591 -4.10216206 -2.73477471 0 0 Z " fill="#B2B2B2" transform="translate(117,170)"/>
<path d="M0 0 C1.65 0 3.3 0 5 0 C4.67 2.31 4.34 4.62 4 7 C0 2.25 0 2.25 0 0 Z " fill="#DCDCDC" transform="translate(66,155)"/>
<path d="M0 0 C0.33 0 0.66 0 1 0 C1.1875 2.375 1.1875 2.375 1 5 C-2 7 -2 7 -5 7 C-4.1875 5.0625 -4.1875 5.0625 -3 3 C-2.01 2.67 -1.02 2.34 0 2 C0 1.34 0 0.68 0 0 Z " fill="#9C9C9C" transform="translate(190,145)"/>
<path d="M0 0 C3.80881639 1.44472346 5.29742886 3.32603071 7 7 C6.67 7.99 6.34 8.98 6 10 C5.34 8.68 4.68 7.36 4 6 C3.34 6.66 2.68 7.32 2 8 C1.34 5.36 0.68 2.72 0 0 Z " fill="#969696" transform="translate(132,145)"/>
<path d="M0 0 C1.65 0 3.3 0 5 0 C3.68 0.33 2.36 0.66 1 1 C1.639375 1.103125 2.27875 1.20625 2.9375 1.3125 C3.618125 1.539375 4.29875 1.76625 5 2 C5.33 2.99 5.66 3.98 6 5 C4.125 5.625 4.125 5.625 2 6 C1.34 5.34 0.68 4.68 0 4 C0 2.68 0 1.36 0 0 Z " fill="#2E2E2E" transform="translate(128,104)"/>
<path d="M0 0 C2.475 0.99 2.475 0.99 5 2 C4.34 2.66 3.68 3.32 3 4 C2.28591666 5.98356483 1.61382258 7.98315437 1 10 C0.34 9.34 -0.32 8.68 -1 8 C-0.625 6.125 -0.625 6.125 0 4 C0 2.68 0 1.36 0 0 Z " fill="#313131" transform="translate(50,98)"/>
<path d="M0 0 C0.99 0 1.98 0 3 0 C3 0.66 3 1.32 3 2 C3.66 2.33 4.32 2.66 5 3 C3.03533587 4.06775224 1.03144641 5.06553465 -1 6 C-1.66 5.67 -2.32 5.34 -3 5 C-1.125 1.125 -1.125 1.125 0 0 Z " fill="#030303" transform="translate(81,25)"/>
<path d="M0 0 C1.65 0 3.3 0 5 0 C5.33 0.99 5.66 1.98 6 3 C6.33 3.66 6.66 4.32 7 5 C4.69 4.67 2.38 4.34 0 4 C0 2.66666667 0 1.33333333 0 0 Z " fill="#141414" transform="translate(98,104)"/>
<path d="M0 0 C0.33 0 0.66 0 1 0 C1.08159574 4.16138263 0.98248524 7.9472484 0 12 C-0.66 11.67 -1.32 11.34 -2 11 C-2 10.34 -2 9.68 -2 9 C-2.66 8.67 -3.32 8.34 -4 8 C-3.525625 7.608125 -3.05125 7.21625 -2.5625 6.8125 C-0.64820367 4.59191626 -0.38733012 2.86624291 0 0 Z " fill="#DADADA" transform="translate(189,135)"/>
<path d="M0 0 C0.99 0.33 1.98 0.66 3 1 C3 2.65 3 4.3 3 6 C1.35 5.67 -0.3 5.34 -2 5 C-1.125 1.125 -1.125 1.125 0 0 Z " fill="#E4E4E4" transform="translate(185,108)"/>
<path d="M0 0 C-1.75 1.5625 -1.75 1.5625 -4 3 C-6.1875 2.8125 -6.1875 2.8125 -8 2 C-8.33 1.34 -8.66 0.68 -9 0 C-5.93109813 -1.53445094 -3.29905734 -0.54984289 0 0 Z " fill="#171717" transform="translate(96,103)"/>
<path d="M0 0 C0.66 0.66 1.32 1.32 2 2 C1.34 2.66 0.68 3.32 0 4 C-0.495 5.175625 -0.99 6.35125 -1.5 7.5625 C-3 11 -3 11 -5 12 C-3.85814266 7.52040582 -2.56984833 3.85477249 0 0 Z " fill="#9D9D9D" transform="translate(57,87)"/>
<path d="M0 0 C0.33 1.32 0.66 2.64 1 4 C-0.32 4.99 -1.64 5.98 -3 7 C-3.66 5.68 -4.32 4.36 -5 3 C-3.35 2.01 -1.7 1.02 0 0 Z " fill="#111111" transform="translate(81,29)"/>
<path d="M0 0 C1.98 0 3.96 0 6 0 C6.33 0.99 6.66 1.98 7 3 C5.02 3.66 3.04 4.32 1 5 C0.67 3.35 0.34 1.7 0 0 Z " fill="#E9E7E8" transform="translate(95,183)"/>
<path d="M0 0 C0.66 0.66 1.32 1.32 2 2 C1.34 2 0.68 2 0 2 C0 2.99 0 3.98 0 5 C-0.66 5 -1.32 5 -2 5 C-2.33 5.66 -2.66 6.32 -3 7 C-3.99 6.67 -4.98 6.34 -6 6 C-4.02 4.02 -2.04 2.04 0 0 Z " fill="#282828" transform="translate(156,176)"/>
<path d="M0 0 C3.63 0.33 7.26 0.66 11 1 C11 1.33 11 1.66 11 2 C6.915021 2.54466387 3.1274515 3 -1 3 C-0.67 2.01 -0.34 1.02 0 0 Z " fill="#EEEEEE" transform="translate(137,120)"/>
<path d="M0 0 C1.32 0 2.64 0 4 0 C4 1.32 4 2.64 4 4 C3.34 4 2.68 4 2 4 C1.67 4.66 1.34 5.32 1 6 C0.67 4.02 0.34 2.04 0 0 Z " fill="#E5E5E5" transform="translate(178,119)"/>
<path d="M0 0 C4.75 0.75 4.75 0.75 7 3 C5.68 3 4.36 3 3 3 C2.01 4.485 2.01 4.485 1 6 C0.34 5.67 -0.32 5.34 -1 5 C-0.67 3.35 -0.34 1.7 0 0 Z " fill="#202020" transform="translate(174,104)"/>
<path d="M0 0 C-1.98953324 1.98953324 -3.40434522 2.97746933 -6 4 C-6.99 3.67 -7.98 3.34 -9 3 C-9 2.34 -9 1.68 -9 1 C-6.04335481 -0.4783226 -3.25770263 -0.06032783 0 0 Z " fill="#E8E8E8" transform="translate(97,57)"/>
<path d="M0 0 C0.66 1.32 1.32 2.64 2 4 C1.34 4.66 0.68 5.32 0 6 C-1.5 4.625 -1.5 4.625 -3 3 C-3 2.34 -3 1.68 -3 1 C-2.01 0.67 -1.02 0.34 0 0 Z " fill="#E0E0E0" transform="translate(109,176)"/>
<path d="M0 0 C0.33 0.66 0.66 1.32 1 2 C2.65 2 4.3 2 6 2 C5.34 3.32 4.68 4.64 4 6 C3.01 5.67 2.02 5.34 1 5 C1.33 4.34 1.66 3.68 2 3 C1.01 3.33 0.02 3.66 -1 4 C-0.67 2.68 -0.34 1.36 0 0 Z " fill="#D8D8D8" transform="translate(182,125)"/>
<path d="M0 0 C3.34373475 0.55728913 6.03312999 1.35173889 9 3 C8.67 3.66 8.34 4.32 8 5 C4.62496331 3.8141763 2.35277269 2.72426311 0 0 Z " fill="#D6D6D6" transform="translate(99,112)"/>
<path d="M0 0 C1.41623216 -0.05447047 2.83308191 -0.09300508 4.25 -0.125 C5.03890625 -0.14820312 5.8278125 -0.17140625 6.640625 -0.1953125 C9.20731941 0.0171622 10.7916067 0.71345895 13 2 C11.02 2.33 9.04 2.66 7 3 C7 2.34 7 1.68 7 1 C4.69 1 2.38 1 0 1 C0 0.67 0 0.34 0 0 Z " fill="#C1C1C1" transform="translate(83,107)"/>
<path d="M0 0 C1.32 0.99 2.64 1.98 4 3 C3.34 4.32 2.68 5.64 2 7 C1.34 6.67 0.68 6.34 0 6 C0 4.02 0 2.04 0 0 Z " fill="#181818" transform="translate(169,87)"/>
<path d="M0 0 C0.66 0 1.32 0 2 0 C1.67 1.65 1.34 3.3 1 5 C-0.98 5.33 -2.96 5.66 -5 6 C-3.38405168 3.95880212 -1.7143618 1.95927063 0 0 Z " fill="#EBEBEB" transform="translate(87,71)"/>
<path d="M0 0 C-1.32 0.99 -2.64 1.98 -4 3 C-4.66 2.67 -5.32 2.34 -6 2 C-8.11683841 2.89163577 -8.11683841 2.89163577 -10 4 C-9.67 3.01 -9.34 2.02 -9 1 C-2.63157895 -1.31578947 -2.63157895 -1.31578947 0 0 Z " fill="#5A5A5A" transform="translate(77,61)"/>
<path d="M0 0 C0.99 0.33 1.98 0.66 3 1 C2.67 2.65 2.34 4.3 2 6 C1.01 6 0.02 6 -1 6 C-1.042721 4.33388095 -1.04063832 2.66617115 -1 1 C-0.67 0.67 -0.34 0.34 0 0 Z " fill="#E9E9E9" transform="translate(178,149)"/>
<path d="M0 0 C0.99 0.33 1.98 0.66 3 1 C2.34 3.31 1.68 5.62 1 8 C0.34 8 -0.32 8 -1 8 C-0.67 5.36 -0.34 2.72 0 0 Z " fill="#101010" transform="translate(191,145)"/>
<path d="M0 0 C0.33 0 0.66 0 1 0 C1 2.31 1 4.62 1 7 C0.01 7 -0.98 7 -2 7 C-2.33 7.99 -2.66 8.98 -3 10 C-2.39009109 6.44219804 -1.4216319 3.3171411 0 0 Z " fill="#BDBDBD" transform="translate(190,111)"/>
<path d="M0 0 C0.66 0 1.32 0 2 0 C1.79375 0.61875 1.5875 1.2375 1.375 1.875 C1.25125 2.57625 1.1275 3.2775 1 4 C1.66 4.66 2.32 5.32 3 6 C1.35 6.33 -0.3 6.66 -2 7 C-1.34 4.69 -0.68 2.38 0 0 Z " fill="#101010" transform="translate(53,101)"/>
<path d="M0 0 C0.66 0.33 1.32 0.66 2 1 C0.25 4.875 0.25 4.875 -2 6 C-2.33 4.35 -2.66 2.7 -3 1 C-2.01 0.67 -1.02 0.34 0 0 Z " fill="#141414" transform="translate(174,94)"/>
<path d="M0 0 C0.66 0.66 1.32 1.32 2 2 C1.2884375 2.928125 1.2884375 2.928125 0.5625 3.875 C-1.02417441 5.90705546 -1.02417441 5.90705546 -2 8 C-2.66 8 -3.32 8 -4 8 C-2.87548273 5.0280615 -1.77706209 2.66559313 0 0 Z " fill="#141414" transform="translate(63,91)"/>
</svg>
